<svg width="74" height="73" viewBox="0 0 74 73" fill="none" xmlns="http://www.w3.org/2000/svg">
<path d="M61.3337 48.6663V21.2913C61.3337 19.6779 60.6927 18.1306 59.5519 16.9898C58.411 15.8489 56.8637 15.208 55.2503 15.208H18.7503C17.1369 15.208 15.5896 15.8489 14.4488 16.9898C13.3079 18.1306 12.667 19.6779 12.667 21.2913V48.6663M61.3337 48.6663H12.667M61.3337 48.6663L65.227 56.4226C65.4615 56.8879 65.5725 57.4057 65.5494 57.9263C65.5263 58.4468 65.3698 58.9527 65.0951 59.3955C64.8203 59.8382 64.4363 60.2029 63.9801 60.4546C63.5238 60.7064 63.0106 60.8366 62.4895 60.833H11.5112C10.9901 60.8366 10.4768 60.7064 10.0206 60.4546C9.56432 60.2029 9.18039 59.8382 8.90559 59.3955C8.63079 58.9527 8.47434 58.4468 8.45123 57.9263C8.42813 57.4057 8.53915 56.8879 8.77365 56.4226L12.667 48.6663" stroke="#FEF2F3" stroke-width="2" stroke-linecap="square" stroke-linejoin="round"/>
</svg>
