<svg width="39" height="42" viewBox="0 0 39 42" fill="none" xmlns="http://www.w3.org/2000/svg">
<path d="M36.1481 0.170899C35.8745 0.170743 35.6035 0.224523 35.3507 0.329165C35.0978 0.433807 34.8681 0.587258 34.6746 0.780745C34.4811 0.974231 34.3277 1.20396 34.2231 1.45679C34.1184 1.70962 34.0646 1.9806 34.0648 2.25423V3.58073C32.3077 5.75928 30.087 7.51863 27.5642 8.73073C25.0415 9.94283 22.2802 10.5772 19.4814 10.5876H6.98145C5.3244 10.5894 3.73574 11.2484 2.56403 12.4201C1.39232 13.5919 0.733254 15.1805 0.731445 16.8376V21.0042C0.733254 22.6613 1.39232 24.2499 2.56403 25.4217C3.73574 26.5934 5.3244 27.2524 6.98145 27.2542H7.98934L2.98365 38.9342C2.84762 39.251 2.79239 39.5966 2.82293 39.9401C2.85346 40.2835 2.9688 40.6139 3.15859 40.9017C3.34839 41.1896 3.60668 41.4257 3.9103 41.5891C4.21392 41.7524 4.55335 41.8378 4.89811 41.8376H13.2314C13.6393 41.8378 14.0382 41.7182 14.3785 41.4936C14.7189 41.2689 14.9858 40.9492 15.1459 40.5742L20.8204 27.3334C23.3842 27.5216 25.8823 28.2335 28.1602 29.4249C30.4382 30.6164 32.4478 32.2621 34.0648 34.2606V35.5876C34.0648 36.1401 34.2843 36.67 34.675 37.0607C35.0657 37.4514 35.5956 37.6709 36.1481 37.6709C36.7006 37.6709 37.2306 37.4514 37.6213 37.0607C38.012 36.67 38.2314 36.1401 38.2314 35.5876V2.25423C38.2316 1.9806 38.1778 1.70962 38.0732 1.45679C37.9685 1.20395 37.8151 0.974226 37.6216 0.780739C37.4281 0.587252 37.1984 0.433801 36.9456 0.32916C36.6927 0.224519 36.4217 0.17074 36.1481 0.170899ZM6.98145 23.0876C6.42902 23.0872 5.89934 22.8676 5.50872 22.477C5.11809 22.0863 4.89848 21.5567 4.89811 21.0042V16.8376C4.89849 16.2851 5.1181 15.7555 5.50872 15.3648C5.89934 14.9742 6.42903 14.7546 6.98145 14.7542H9.06478V23.0876H6.98145ZM11.8582 37.6709H8.0577L12.5214 27.2542H16.3219L11.8582 37.6709ZM34.0648 28.3413C29.957 24.9572 24.8037 23.1006 19.4814 23.0875H13.2314V14.7541H19.4814C24.8038 14.7405 29.9571 12.8836 34.0648 9.49925V28.3413Z" fill="white"/>
</svg>
