<svg width="30" height="19" viewBox="0 0 30 19" fill="none" xmlns="http://www.w3.org/2000/svg">
<path d="M28.8978 2.42708C28.6761 2.29909 28.4246 2.2317 28.1686 2.2317C27.9126 2.2317 27.6611 2.29909 27.4394 2.42708L22.2915 4.96458C22.25 3.83229 21.7707 2.76027 20.9547 1.97418C20.1387 1.18809 19.0496 0.749239 17.9165 0.750001H4.7915C3.63118 0.750001 2.51838 1.21094 1.69791 2.03141C0.87744 2.85188 0.416504 3.96468 0.416504 5.125V13.875C0.416504 15.0353 0.87744 16.1481 1.69791 16.9686C2.51838 17.7891 3.63118 18.25 4.7915 18.25H17.9165C19.0496 18.2508 20.1387 17.8119 20.9547 17.0258C21.7707 16.2397 22.25 15.1677 22.2915 14.0354L27.4832 16.6312C27.682 16.7332 27.9015 16.788 28.1248 16.7917C28.3979 16.7925 28.6657 16.7168 28.8978 16.5729C29.1079 16.4416 29.2811 16.2588 29.4011 16.0419C29.521 15.825 29.5837 15.5812 29.5832 15.3333V3.66667C29.5837 3.41883 29.521 3.17496 29.4011 2.95807C29.2811 2.74118 29.1079 2.55844 28.8978 2.42708V2.42708ZM19.3748 13.875C19.3748 14.2618 19.2212 14.6327 18.9477 14.9062C18.6742 15.1797 18.3033 15.3333 17.9165 15.3333H4.7915C4.40473 15.3333 4.0338 15.1797 3.76031 14.9062C3.48682 14.6327 3.33317 14.2618 3.33317 13.875V5.125C3.33317 4.73823 3.48682 4.36729 3.76031 4.0938C4.0338 3.82031 4.40473 3.66667 4.7915 3.66667H17.9165C18.3033 3.66667 18.6742 3.82031 18.9477 4.0938C19.2212 4.36729 19.3748 4.73823 19.3748 5.125V13.875ZM26.6665 12.9708L22.2915 10.7833V8.21667L26.6665 6.02917V12.9708Z" fill="white"/>
</svg>
