<svg width="27" height="28" viewBox="0 0 27 28" fill="none" xmlns="http://www.w3.org/2000/svg">
<path d="M12.375 5H4.5C3.90326 5 3.33097 5.23705 2.90901 5.65901C2.48705 6.08097 2.25 6.65326 2.25 7.25V23C2.25 23.5967 2.48705 24.169 2.90901 24.591C3.33097 25.0129 3.90326 25.25 4.5 25.25H20.25C20.8467 25.25 21.419 25.0129 21.841 24.591C22.2629 24.169 22.5 23.5967 22.5 23V15.125" stroke="#AED4EF" stroke-width="2" stroke-linecap="square" stroke-linejoin="round"/>
<path d="M20.8125 3.31251C21.2601 2.86496 21.8671 2.61353 22.5 2.61353C23.1329 2.61353 23.7399 2.86496 24.1875 3.31251C24.6351 3.76006 24.8865 4.36708 24.8865 5.00001C24.8865 5.63295 24.6351 6.23996 24.1875 6.68751L13.5 17.375L9 18.5L10.125 14L20.8125 3.31251Z" stroke="#AED4EF" stroke-width="2" stroke-linecap="square" stroke-linejoin="round"/>
</svg>
