<svg width="35" height="35" viewBox="0 0 35 35" fill="none" xmlns="http://www.w3.org/2000/svg">
<path d="M10.6356 18.5311L16.4684 24.364C16.7426 24.6364 17.1135 24.7893 17.5 24.7893C17.8865 24.7893 18.2573 24.6364 18.5315 24.364L24.3643 18.5311C24.6337 18.2568 24.7838 17.8872 24.7821 17.5028C24.7804 17.1183 24.6269 16.7501 24.355 16.4783C24.0832 16.2065 23.715 16.053 23.3305 16.0512C22.9461 16.0495 22.5765 16.1996 22.3022 16.469L18.9583 19.8129V11.6667C18.9583 11.2799 18.8046 10.909 18.5311 10.6355C18.2576 10.362 17.8867 10.2084 17.4999 10.2084C17.1132 10.2084 16.7422 10.362 16.4687 10.6355C16.1953 10.909 16.0416 11.2799 16.0416 11.6667V19.8129L12.6976 16.469C12.4234 16.1996 12.0538 16.0495 11.6693 16.0512C11.2849 16.053 10.9167 16.2065 10.6449 16.4783C10.373 16.7501 10.2195 17.1183 10.2178 17.5028C10.216 17.8872 10.3662 18.2568 10.6356 18.5311Z" fill="white"/>
<path d="M17.5 32.0833C20.3843 32.0833 23.2038 31.228 25.602 29.6256C28.0002 28.0231 29.8694 25.7455 30.9732 23.0808C32.077 20.416 32.3658 17.4838 31.8031 14.6549C31.2404 11.826 29.8515 9.22751 27.8119 7.18799C25.7724 5.14848 23.1739 3.75955 20.345 3.19685C17.5161 2.63415 14.5839 2.92294 11.9192 4.02672C9.2544 5.1305 6.9768 6.99968 5.37436 9.3979C3.77192 11.7961 2.91663 14.6157 2.91663 17.5C2.92093 21.3664 4.45876 25.0732 7.19274 27.8072C9.92671 30.5412 13.6335 32.079 17.5 32.0833ZM10.6356 16.4689C10.771 16.3335 10.9317 16.226 11.1086 16.1527C11.2855 16.0794 11.4752 16.0417 11.6667 16.0417C11.8582 16.0417 12.0478 16.0794 12.2247 16.1527C12.4016 16.226 12.5624 16.3335 12.6978 16.4689L16.0416 19.8128V11.6666C16.0416 11.2799 16.1953 10.9089 16.4688 10.6354C16.7423 10.3619 17.1132 10.2083 17.5 10.2083C17.8867 10.2083 18.2577 10.3619 18.5312 10.6354C18.8046 10.9089 18.9583 11.2799 18.9583 11.6666V19.8128L22.3023 16.4688C22.5763 16.1982 22.9463 16.047 23.3314 16.0482C23.7166 16.0495 24.0856 16.203 24.3579 16.4753C24.6302 16.7477 24.7838 17.1167 24.785 17.5019C24.7862 17.887 24.635 18.257 24.3643 18.531L18.5315 24.3639C18.2573 24.6363 17.8864 24.7893 17.4999 24.7893C17.1134 24.7893 16.7426 24.6363 16.4684 24.3639L10.6356 18.531C10.5001 18.3956 10.3927 18.2349 10.3194 18.058C10.2461 17.8811 10.2084 17.6915 10.2084 17.5C10.2084 17.3085 10.2461 17.1189 10.3194 16.9419C10.3927 16.765 10.5001 16.6043 10.6356 16.4689Z" fill="#A8071A"/>
</svg>
