<svg width="29" height="28" viewBox="0 0 29 28" fill="none" xmlns="http://www.w3.org/2000/svg">
<path d="M9.00855 14.8249L13.6749 19.4912C13.8942 19.7091 14.1909 19.8314 14.5001 19.8314C14.8093 19.8314 15.106 19.7091 15.3253 19.4912L19.9916 14.8249C20.207 14.6054 20.3272 14.3098 20.3258 14.0022C20.3244 13.6947 20.2016 13.4001 19.9841 13.1826C19.7666 12.9651 19.4721 12.8424 19.1645 12.841C18.857 12.8396 18.5613 12.9597 18.3419 13.1752L15.6667 15.8503V9.33335C15.6667 9.02393 15.5438 8.72719 15.325 8.5084C15.1062 8.2896 14.8095 8.16669 14.5001 8.16669C14.1906 8.16669 13.8939 8.2896 13.6751 8.5084C13.4563 8.72719 13.3334 9.02393 13.3334 9.33335V15.8503L10.6582 13.1752C10.4388 12.9597 10.1431 12.8396 9.83557 12.841C9.52802 12.8424 9.23346 12.9651 9.01599 13.1826C8.79851 13.4001 8.67572 13.6947 8.67433 14.0022C8.67294 14.3098 8.79305 14.6054 9.00855 14.8249Z" fill="white"/>
<path d="M14.5 25.6667C16.8075 25.6667 19.0631 24.9824 20.9817 23.7005C22.9003 22.4185 24.3956 20.5964 25.2786 18.4646C26.1617 16.3328 26.3927 13.987 25.9425 11.7239C25.4924 9.46082 24.3812 7.38202 22.7496 5.75041C21.118 4.11879 19.0392 3.00765 16.7761 2.55749C14.513 2.10733 12.1672 2.33837 10.0354 3.22139C7.9036 4.10441 6.08151 5.59976 4.79956 7.51833C3.51761 9.43691 2.83337 11.6925 2.83337 14C2.83681 17.0931 4.06708 20.0586 6.25426 22.2458C8.44144 24.4329 11.4069 25.6632 14.5 25.6667ZM9.00854 13.1752C9.11684 13.0668 9.24544 12.9808 9.38697 12.9222C9.5285 12.8635 9.68021 12.8334 9.83341 12.8334C9.98661 12.8334 10.1383 12.8635 10.2798 12.9222C10.4214 12.9808 10.55 13.0668 10.6583 13.1752L13.3334 15.8502V9.33332C13.3334 9.0239 13.4563 8.72715 13.6751 8.50836C13.8939 8.28957 14.1906 8.16665 14.5 8.16665C14.8095 8.16665 15.1062 8.28957 15.325 8.50836C15.5438 8.72715 15.6667 9.0239 15.6667 9.33332V15.8502L18.3419 13.1751C18.5611 12.9586 18.8571 12.8376 19.1652 12.8386C19.4733 12.8396 19.7685 12.9624 19.9864 13.1803C20.2043 13.3982 20.3271 13.6934 20.3281 14.0015C20.329 14.3096 20.208 14.6056 19.9915 14.8248L15.3252 19.4911C15.1059 19.7091 14.8092 19.8314 14.5 19.8314C14.1908 19.8314 13.8941 19.7091 13.6748 19.4911L9.00854 14.8248C8.90019 14.7165 8.81424 14.5879 8.7556 14.4464C8.69696 14.3049 8.66677 14.1532 8.66677 14C8.66677 13.8468 8.69696 13.6951 8.7556 13.5536C8.81424 13.412 8.90019 13.2835 9.00854 13.1752Z" fill="#A8071A"/>
</svg>
