<svg width="20" height="20" viewBox="0 0 20 20" fill="none" xmlns="http://www.w3.org/2000/svg">
<path d="M13.9225 9.41086L10.5894 6.07777C10.4327 5.92209 10.2208 5.83472 9.99996 5.83472C9.77909 5.83472 9.56719 5.92209 9.41051 6.07777L6.07748 9.41086C5.92356 9.5676 5.83776 9.77878 5.83875 9.99846C5.83975 10.2181 5.92746 10.4285 6.0828 10.5839C6.23813 10.7392 6.44853 10.8269 6.66821 10.8279C6.88789 10.8289 7.09908 10.7431 7.25582 10.5892L9.16665 8.67841V13.3334C9.16665 13.5544 9.25445 13.7663 9.41073 13.9226C9.56701 14.0789 9.77897 14.1667 9.99998 14.1667C10.221 14.1667 10.433 14.0789 10.5892 13.9226C10.7455 13.7663 10.8333 13.5544 10.8333 13.3334V8.67841L12.7442 10.5892C12.9008 10.7439 13.1122 10.8303 13.3322 10.8296C13.5523 10.8289 13.7632 10.7411 13.9188 10.5855C14.0744 10.4299 14.1622 10.219 14.1628 9.99894C14.1635 9.77886 14.0771 9.56745 13.9225 9.41086Z" fill="#B7EB8F"/>
<path d="M9.99996 1.66663C8.35179 1.66663 6.74062 2.15537 5.37021 3.07105C3.9998 3.98672 2.9317 5.28821 2.30097 6.81093C1.67024 8.33365 1.50521 10.0092 1.82675 11.6257C2.1483 13.2422 2.94197 14.7271 4.10741 15.8925C5.27284 17.058 6.7577 17.8516 8.37421 18.1732C9.99072 18.4947 11.6663 18.3297 13.189 17.699C14.7117 17.0682 16.0132 16.0001 16.9289 14.6297C17.8446 13.2593 18.3333 11.6481 18.3333 9.99996C18.3308 7.79058 17.4521 5.67239 15.8898 4.11012C14.3275 2.54785 12.2093 1.66908 9.99996 1.66663V1.66663ZM13.9225 10.5891C13.8451 10.6665 13.7533 10.7279 13.6522 10.7698C13.5511 10.8117 13.4427 10.8333 13.3333 10.8333C13.2238 10.8333 13.1155 10.8117 13.0144 10.7698C12.9133 10.7279 12.8214 10.6665 12.7441 10.5891L10.8333 8.67834V13.3333C10.8333 13.5543 10.7455 13.7663 10.5892 13.9225C10.4329 14.0788 10.221 14.1666 9.99996 14.1666C9.77895 14.1666 9.56699 14.0788 9.41071 13.9225C9.25443 13.7663 9.16663 13.5543 9.16663 13.3333V8.67834L7.2558 10.5891C7.09906 10.7431 6.88787 10.8289 6.66819 10.8279C6.44851 10.8269 6.23811 10.7392 6.08277 10.5838C5.92744 10.4285 5.83973 10.2181 5.83873 9.9984C5.83774 9.77872 5.92354 9.56753 6.07746 9.41079L9.41054 6.07771C9.56722 5.92203 9.77912 5.83465 9.99999 5.83465C10.2209 5.83465 10.4328 5.92203 10.5894 6.07771L13.9225 9.41079C13.9999 9.48815 14.0613 9.58 14.1031 9.68109C14.145 9.78218 14.1666 9.89053 14.1666 9.99996C14.1666 10.1094 14.145 10.2177 14.1031 10.3188C14.0613 10.4199 13.9999 10.5118 13.9225 10.5891V10.5891Z" fill="#389E0D"/>
</svg>
