<svg width="50" height="50" viewBox="0 0 50 50" fill="none" xmlns="http://www.w3.org/2000/svg">
<path d="M44.7917 13.5417H38.5417V5.20833C38.5417 3.95833 37.7083 3.125 36.4583 3.125H13.5417C12.2917 3.125 11.4583 3.95833 11.4583 5.20833V13.5417H5.20833C3.95833 13.5417 3.125 14.375 3.125 15.625V44.7917C3.125 46.0417 3.95833 46.875 5.20833 46.875H44.7917C46.0417 46.875 46.875 46.0417 46.875 44.7917V15.625C46.875 14.375 46.0417 13.5417 44.7917 13.5417ZM15.625 38.5417H13.5417C12.2917 38.5417 11.4583 37.7083 11.4583 36.4583C11.4583 35.2083 12.2917 34.375 13.5417 34.375H15.625C16.875 34.375 17.7083 35.2083 17.7083 36.4583C17.7083 37.7083 16.875 38.5417 15.625 38.5417ZM15.625 30.2083H13.5417C12.2917 30.2083 11.4583 29.375 11.4583 28.125C11.4583 26.875 12.2917 26.0417 13.5417 26.0417H15.625C16.875 26.0417 17.7083 26.875 17.7083 28.125C17.7083 29.375 16.875 30.2083 15.625 30.2083ZM26.0417 38.5417H23.9583C22.7083 38.5417 21.875 37.7083 21.875 36.4583C21.875 35.2083 22.7083 34.375 23.9583 34.375H26.0417C27.2917 34.375 28.125 35.2083 28.125 36.4583C28.125 37.7083 27.2917 38.5417 26.0417 38.5417ZM26.0417 30.2083H23.9583C22.7083 30.2083 21.875 29.375 21.875 28.125C21.875 26.875 22.7083 26.0417 23.9583 26.0417H26.0417C27.2917 26.0417 28.125 26.875 28.125 28.125C28.125 29.375 27.2917 30.2083 26.0417 30.2083ZM28.125 18.75H27.0833V19.7917C27.0833 21.0417 26.25 21.875 25 21.875C23.75 21.875 22.9167 21.0417 22.9167 19.7917V18.75H21.875C20.625 18.75 19.7917 17.9167 19.7917 16.6667C19.7917 15.4167 20.625 14.5833 21.875 14.5833H22.9167V13.5417C22.9167 12.2917 23.75 11.4583 25 11.4583C26.25 11.4583 27.0833 12.2917 27.0833 13.5417V14.5833H28.125C29.375 14.5833 30.2083 15.4167 30.2083 16.6667C30.2083 17.9167 29.375 18.75 28.125 18.75ZM36.4583 38.5417H34.375C33.125 38.5417 32.2917 37.7083 32.2917 36.4583C32.2917 35.2083 33.125 34.375 34.375 34.375H36.4583C37.7083 34.375 38.5417 35.2083 38.5417 36.4583C38.5417 37.7083 37.7083 38.5417 36.4583 38.5417ZM36.4583 30.2083H34.375C33.125 30.2083 32.2917 29.375 32.2917 28.125C32.2917 26.875 33.125 26.0417 34.375 26.0417H36.4583C37.7083 26.0417 38.5417 26.875 38.5417 28.125C38.5417 29.375 37.7083 30.2083 36.4583 30.2083Z" fill="white"/>
</svg>
