<svg width="18" height="18" viewBox="0 0 18 18" fill="none" xmlns="http://www.w3.org/2000/svg">
<path d="M1.08325 6.41658L8.58325 10.7499C8.74991 10.8333 8.83325 10.8333 8.99991 10.8333C9.16658 10.8333 9.24991 10.8333 9.41658 10.7499L16.9166 6.41658C17.0832 6.33325 17.1666 6.24992 17.2499 6.08325C17.4166 5.66658 17.3332 5.16658 16.9166 4.91658L9.41658 0.583252C9.16658 0.416585 8.83325 0.416585 8.58325 0.583252L1.08325 4.91658C0.916579 4.99992 0.833246 5.08325 0.749912 5.24992C0.583246 5.66658 0.666579 6.16658 1.08325 6.41658ZM16.9166 8.24992L16.7499 8.16658L9.41658 12.4166C9.16658 12.5833 8.83325 12.5833 8.58325 12.4166L1.24991 8.16658L1.08325 8.24992C0.666579 8.49992 0.583246 8.99992 0.749912 9.41658C0.833246 9.58325 0.916579 9.66658 1.08325 9.74992L8.58325 14.0833C8.83325 14.2499 9.16658 14.2499 9.41658 14.0833L16.9166 9.74992C17.3332 9.49992 17.4166 8.99992 17.2499 8.58325C17.1666 8.41658 17.0832 8.33325 16.9166 8.24992ZM16.9166 11.5833L16.7499 11.4999L9.41658 15.7499C9.16658 15.9166 8.83325 15.9166 8.58325 15.7499L1.24991 11.4999L1.08325 11.5833C0.666579 11.8333 0.583246 12.3333 0.749912 12.7499C0.833246 12.9166 0.916579 12.9999 1.08325 13.0833L8.58325 17.4166C8.83325 17.5833 9.16658 17.5833 9.41658 17.4166L16.9166 13.0833C17.3332 12.8333 17.4166 12.3333 17.2499 11.9166C17.1666 11.7499 17.0832 11.6666 16.9166 11.5833Z" fill="white"/>
</svg>
