<svg width="25" height="24" viewBox="0 0 25 24" fill="none" xmlns="http://www.w3.org/2000/svg">
<path d="M17.4999 11H9.9099L13.2099 7.71C13.3982 7.5217 13.504 7.2663 13.504 7C13.504 6.7337 13.3982 6.47831 13.2099 6.29C13.0216 6.1017 12.7662 5.99591 12.4999 5.99591C12.2336 5.99591 11.9782 6.1017 11.7899 6.29L6.7899 11.29C6.69886 11.3851 6.62749 11.4973 6.5799 11.62C6.47988 11.8635 6.47988 12.1365 6.5799 12.38C6.62749 12.5028 6.69886 12.6149 6.7899 12.71L11.7899 17.71C11.8829 17.8037 11.9935 17.8781 12.1153 17.9289C12.2372 17.9797 12.3679 18.0058 12.4999 18.0058C12.6319 18.0058 12.7626 17.9797 12.8845 17.9289C13.0063 17.8781 13.1169 17.8037 13.2099 17.71C13.3036 17.617 13.378 17.5064 13.4288 17.3846C13.4796 17.2627 13.5057 17.132 13.5057 17C13.5057 16.868 13.4796 16.7373 13.4288 16.6154C13.378 16.4936 13.3036 16.383 13.2099 16.29L9.9099 13H17.4999C17.7651 13 18.0195 12.8946 18.207 12.7071C18.3945 12.5196 18.4999 12.2652 18.4999 12C18.4999 11.7348 18.3945 11.4804 18.207 11.2929C18.0195 11.1054 17.7651 11 17.4999 11Z" fill="white"/>
</svg>
