<svg width="26" height="31" viewBox="0 0 26 31" fill="none" xmlns="http://www.w3.org/2000/svg">
<path d="M21.7499 4.53355C19.4292 2.2129 16.2817 0.90918 12.9999 0.90918C9.71797 0.90918 6.5705 2.2129 4.24986 4.53355C1.92921 6.85419 0.625488 10.0017 0.625488 13.2835C0.625488 16.5654 1.92921 19.7129 4.24986 22.0335L11.9353 29.7335C12.0708 29.8702 12.2321 29.9787 12.4098 30.0528C12.5876 30.1268 12.7782 30.1649 12.9707 30.1649C13.1632 30.1649 13.3538 30.1268 13.5315 30.0528C13.7092 29.9787 13.8705 29.8702 14.0061 29.7335L21.7499 21.9606C24.0608 19.6496 25.3591 16.5153 25.3591 13.2471C25.3591 9.97889 24.0608 6.84454 21.7499 4.53355V4.53355ZM19.6644 19.8752L12.9999 26.569L6.33527 19.8752C5.01861 18.5573 4.12222 16.8787 3.75941 15.0515C3.39661 13.2242 3.58367 11.3305 4.29697 9.60954C5.01026 7.88861 6.21776 6.41779 7.76682 5.38299C9.31588 4.3482 11.137 3.7959 12.9999 3.7959C14.8628 3.7959 16.6838 4.3482 18.2329 5.38299C19.782 6.41779 20.9895 7.88861 21.7027 9.60954C22.416 11.3305 22.6031 13.2242 22.2403 15.0515C21.8775 16.8787 20.9811 18.5573 19.6644 19.8752V19.8752ZM8.62486 8.80646C7.44757 9.98738 6.78647 11.5869 6.78647 13.2544C6.78647 14.9219 7.44757 16.5214 8.62486 17.7023C9.49951 18.5784 10.6134 19.1768 11.8268 19.4223C13.0403 19.6677 14.2992 19.5494 15.4456 19.0821C16.592 18.6148 17.5749 17.8194 18.271 16.7956C18.967 15.7718 19.3453 14.5652 19.3582 13.3273C19.3648 12.5007 19.2055 11.6812 18.8899 10.9172C18.5743 10.1533 18.1087 9.46032 17.5207 8.87938C16.9427 8.28814 16.2535 7.81704 15.4928 7.49319C14.732 7.16933 13.9147 6.99912 13.0879 6.99234C12.2612 6.98556 11.4412 7.14236 10.6752 7.4537C9.90927 7.76504 9.21245 8.22478 8.62486 8.80646V8.80646ZM15.4644 15.6315C14.9118 16.1925 14.1814 16.5442 13.3982 16.6264C12.6149 16.7086 11.8275 16.5161 11.1704 16.082C10.5133 15.6478 10.0275 14.9989 9.79591 14.2462C9.56434 13.4934 9.60143 12.6836 9.90084 11.9552C10.2002 11.2268 10.7434 10.625 11.4374 10.2527C12.1314 9.88046 12.9331 9.76081 13.7056 9.91424C14.4781 10.0677 15.1732 10.4847 15.6723 11.0939C16.1713 11.7032 16.4432 12.4668 16.4415 13.2544C16.4203 14.1546 16.0427 15.0095 15.3915 15.6315H15.4644Z" fill="white"/>
</svg>
