<svg width="50" height="50" viewBox="0 0 50 50" fill="none" xmlns="http://www.w3.org/2000/svg">
<path d="M41.6484 4.17078C41.3747 4.17062 41.1038 4.2244 40.8509 4.32904C40.5981 4.43368 40.3684 4.58714 40.1749 4.78062C39.9814 4.97411 39.8279 5.20384 39.7233 5.45667C39.6187 5.7095 39.5649 5.98048 39.565 6.25411V7.58061C37.808 9.75916 35.5872 11.5185 33.0645 12.7306C30.5418 13.9427 27.7805 14.577 24.9817 14.5874H12.4817C10.8246 14.5893 9.23598 15.2483 8.06427 16.42C6.89256 17.5917 6.2335 19.1804 6.23169 20.8374V25.0041C6.2335 26.6612 6.89256 28.2498 8.06427 29.4215C9.23598 30.5932 10.8246 31.2523 12.4817 31.2541H13.4896L8.4839 42.9341C8.34787 43.2509 8.29264 43.5965 8.32317 43.9399C8.35371 44.2833 8.46905 44.6138 8.65884 44.9016C8.84863 45.1894 9.10693 45.4256 9.41055 45.589C9.71416 45.7523 10.0536 45.8377 10.3984 45.8374H18.7317C19.1395 45.8377 19.5384 45.7181 19.8788 45.4934C20.2192 45.2688 20.486 44.9491 20.6462 44.574L26.3207 31.3333C28.8845 31.5215 31.3825 32.2333 33.6605 33.4248C35.9385 34.6162 37.948 36.262 39.565 38.2605V39.5874C39.565 40.14 39.7845 40.6699 40.1752 41.0606C40.5659 41.4513 41.0958 41.6708 41.6484 41.6708C42.2009 41.6708 42.7308 41.4513 43.1215 41.0606C43.5122 40.6699 43.7317 40.14 43.7317 39.5874V6.25411C43.7318 5.98048 43.6781 5.7095 43.5734 5.45667C43.4688 5.20383 43.3153 4.9741 43.1218 4.78062C42.9284 4.58713 42.6986 4.43368 42.4458 4.32904C42.193 4.2244 41.922 4.17062 41.6484 4.17078ZM12.4817 27.0874C11.9293 27.0871 11.3996 26.8675 11.009 26.4768C10.6183 26.0862 10.3987 25.5565 10.3984 25.0041V20.8374C10.3987 20.285 10.6183 19.7553 11.009 19.3647C11.3996 18.9741 11.9293 18.7545 12.4817 18.7541H14.565V27.0874H12.4817ZM17.3584 41.6708H13.5579L18.0216 31.2541H21.8221L17.3584 41.6708ZM39.565 32.3412C35.4572 28.9571 30.3039 27.1005 24.9817 27.0873H18.7317V18.754H24.9817C30.304 18.7404 35.4573 16.8835 39.565 13.4991V32.3412Z" fill="white"/>
</svg>
