<svg width="35" height="35" viewBox="0 0 35 35" fill="none" xmlns="http://www.w3.org/2000/svg">
<path d="M30.1591 19.2082C29.7833 19.2082 29.3904 19.0886 29.0145 19.0032C28.254 18.8331 27.5063 18.6105 26.7766 18.3369C25.9841 18.0486 25.1129 18.0636 24.3308 18.379C23.5487 18.6943 22.9108 19.2878 22.5399 20.0453L22.1641 20.8311C20.505 19.8901 18.9723 18.742 17.6029 17.4144C16.2752 16.045 15.1271 14.5123 14.1862 12.8532L14.972 12.4944C15.7294 12.1236 16.3229 11.4857 16.6383 10.7036C16.9537 9.92142 16.9687 9.05027 16.6804 8.25775C16.4091 7.52151 16.1865 6.76822 16.0141 6.00275C15.9287 5.62692 15.8604 5.234 15.8091 4.85817C15.6017 3.65485 14.9714 2.56515 14.0318 1.78529C13.0922 1.00543 11.905 0.586669 10.6841 0.60442H5.54202C4.81982 0.603474 4.10557 0.755177 3.4461 1.04958C2.78663 1.34399 2.19682 1.77445 1.71535 2.31275C1.2239 2.86566 0.857968 3.51841 0.642698 4.22615C0.427427 4.93389 0.367923 5.67984 0.468271 6.41275C1.3969 13.5231 4.64551 20.1284 9.71036 25.2044C14.7864 30.2693 21.3917 33.5179 28.502 34.4465C28.7238 34.4634 28.9465 34.4634 29.1683 34.4465C30.428 34.4483 31.6443 33.9862 32.5849 33.1482C33.1232 32.6667 33.5537 32.0769 33.8481 31.4174C34.1425 30.758 34.2942 30.0437 34.2933 29.3215V24.1965C34.2841 23.0161 33.8677 21.8751 33.1144 20.9662C32.3612 20.0573 31.3173 19.4363 30.1591 19.2082ZM30.9962 29.4582C30.9956 29.6966 30.9452 29.9322 30.8481 30.1499C30.751 30.3676 30.6094 30.5626 30.4324 30.7223C30.2452 30.8929 30.0224 31.0197 29.7801 31.0936C29.5378 31.1675 29.2822 31.1865 29.0316 31.1494C22.6566 30.3168 16.732 27.4116 12.1704 22.8811C7.60479 18.3155 4.67424 12.3703 3.83369 5.96859C3.79658 5.71803 3.81564 5.46236 3.88951 5.22008C3.96337 4.97781 4.09019 4.75498 4.26077 4.56775C4.42242 4.38864 4.62017 4.24579 4.841 4.14862C5.06184 4.05146 5.30076 4.00217 5.54202 4.004H10.667C11.0619 3.99435 11.448 4.12185 11.7594 4.3648C12.0709 4.60775 12.2886 4.95114 12.3754 5.3365C12.3754 5.79775 12.5291 6.27609 12.6316 6.73734C12.829 7.63227 13.0917 8.51156 13.4174 9.36817L11.0258 10.4957C10.6147 10.6844 10.2952 11.0284 10.1374 11.4523C9.96657 11.8682 9.96657 12.3348 10.1374 12.7507C12.5961 18.017 16.8294 22.2504 22.0958 24.709C22.5117 24.8799 22.9782 24.8799 23.3941 24.709C23.818 24.5512 24.1621 24.2318 24.3508 23.8207L25.427 21.429C26.3084 21.7504 27.2101 22.0129 28.1262 22.2148C28.5704 22.3173 29.0487 22.4028 29.5099 22.4711C29.8953 22.5579 30.2387 22.7755 30.4816 23.087C30.7246 23.3985 30.8521 23.7845 30.8424 24.1794L30.9962 29.4582ZM20.917 0.416504C20.5241 0.416504 20.1141 0.416504 19.7212 0.416504C19.2681 0.455016 18.8489 0.671934 18.5557 1.01954C18.2626 1.36715 18.1196 1.81697 18.1581 2.27005C18.1966 2.72312 18.4135 3.14235 18.7611 3.43549C19.1087 3.72863 19.5585 3.87168 20.0116 3.83317H20.917C23.6355 3.83317 26.2426 4.91308 28.1649 6.83533C30.0871 8.75757 31.167 11.3647 31.167 14.0832C31.167 14.3907 31.167 14.6811 31.167 14.9886C31.1291 15.4393 31.2715 15.8866 31.5629 16.2324C31.8544 16.5783 32.271 16.7945 32.7216 16.8336H32.8583C33.2859 16.8353 33.6987 16.6766 34.015 16.3888C34.3313 16.1009 34.5281 15.7049 34.5666 15.279C34.5666 14.8861 34.5666 14.4761 34.5666 14.0832C34.5666 10.4615 33.1291 6.98792 30.5698 4.42541C28.0105 1.86291 24.5387 0.421031 20.917 0.416504ZM24.3337 14.0832C24.3337 14.5362 24.5137 14.9708 24.834 15.2911C25.1544 15.6115 25.5889 15.7915 26.042 15.7915C26.4951 15.7915 26.9296 15.6115 27.25 15.2911C27.5704 14.9708 27.7504 14.5362 27.7504 14.0832C27.7504 12.2709 27.0304 10.5328 25.7489 9.25127C24.4674 7.96977 22.7293 7.24984 20.917 7.24984C20.4639 7.24984 20.0294 7.42982 19.709 7.7502C19.3887 8.07057 19.2087 8.50509 19.2087 8.95817C19.2087 9.41125 19.3887 9.84577 19.709 10.1661C20.0294 10.4865 20.4639 10.6665 20.917 10.6665C21.8232 10.6665 22.6922 11.0265 23.333 11.6672C23.9737 12.308 24.3337 13.177 24.3337 14.0832Z" fill="white"/>
</svg>
