<svg width="20" height="20" viewBox="0 0 20 20" fill="none" xmlns="http://www.w3.org/2000/svg">
<path d="M7.55005 9.91672L14.275 3.20005C14.4943 2.97376 14.7563 2.79334 15.0459 2.66931C15.3356 2.54528 15.647 2.48012 15.962 2.47761C16.2771 2.47511 16.5895 2.53532 16.881 2.65473C17.1726 2.77415 17.4375 2.95038 17.6603 3.17316C17.8831 3.39594 18.0593 3.66083 18.1787 3.95239C18.2981 4.24395 18.3583 4.55635 18.3558 4.8714C18.3533 5.18646 18.2882 5.49787 18.1641 5.78749C18.0401 6.07712 17.8597 6.33917 17.6334 6.55839L10.9167 13.2917" stroke="white" stroke-linecap="square" stroke-linejoin="round"/>
<path d="M5.89168 12.45C4.50835 12.45 3.39169 13.575 3.39169 14.9666C3.39169 16.075 1.30835 16.2333 1.72502 16.65C2.62502 17.5666 3.80002 18.3333 5.05835 18.3333C6.89169 18.3333 8.39168 16.8333 8.39168 14.9666C8.39278 14.6372 8.32899 14.3108 8.20394 14.0061C8.0789 13.7013 7.89505 13.4242 7.66291 13.1905C7.43076 12.9568 7.15486 12.7711 6.85095 12.6441C6.54704 12.517 6.22108 12.451 5.89168 12.45Z" stroke="white" stroke-linecap="square" stroke-linejoin="round"/>
</svg>
