<svg width="30" height="27" viewBox="0 0 30 27" fill="none" xmlns="http://www.w3.org/2000/svg">
<path d="M28.5915 3.36453L19.8415 0.447864H19.7394C19.6715 0.441042 19.6031 0.441042 19.5353 0.447864H19.1998H19.0103H18.9082L10.6248 3.29161L2.34151 0.447864C2.1222 0.375548 1.88885 0.356347 1.66066 0.391842C1.43248 0.427337 1.21599 0.516513 1.02901 0.652031C0.840531 0.786222 0.686687 0.963331 0.580185 1.16873C0.473682 1.37413 0.417579 1.60192 0.416509 1.83328V22.2499C0.41572 22.5557 0.511036 22.8539 0.688987 23.1025C0.866937 23.3511 1.11852 23.5375 1.40818 23.6354L10.1582 26.552C10.452 26.6478 10.7686 26.6478 11.0623 26.552V26.552L19.3748 23.7812L27.6582 26.6249C27.813 26.646 27.97 26.646 28.1248 26.6249C28.4298 26.6292 28.7274 26.5317 28.9707 26.3479C29.1592 26.2137 29.313 26.0366 29.4195 25.8312C29.526 25.6258 29.5821 25.398 29.5832 25.1666V4.74995C29.584 4.44422 29.4886 4.14597 29.3107 3.89736C29.1327 3.64876 28.8812 3.46236 28.5915 3.36453V3.36453ZM9.16651 23.1395L3.33318 21.1999V3.86036L9.16651 5.79995V23.1395ZM17.9165 21.1999L12.0832 23.1395V5.79995L17.9165 3.86036V21.1999ZM26.6665 23.1395L20.8332 21.1999V3.86036L26.6665 5.79995V23.1395Z" fill="white"/>
</svg>
