<svg width="50" height="50" viewBox="0 0 50 50" fill="none" xmlns="http://www.w3.org/2000/svg">
<path d="M33.125 27.5C32.9167 27.5 32.9167 27.2917 32.7083 27.2917C35.8333 25 37.5 21.4583 37.5 17.5C37.5 17.0833 37.5 16.6667 37.5 16.25V16.0417L38.125 11.0417C38.5417 7.70833 36.25 4.79167 33.125 4.16667L31.25 3.75C27.0833 3.125 22.9167 3.125 18.75 3.75L17.0833 4.16667C13.75 4.79167 11.4583 7.70833 11.875 11.0417L12.5 16.0417V16.25C12.5 16.6667 12.5 17.0833 12.5 17.5C12.5 21.25 14.1667 25 17.2917 27.2917C17.0833 27.2917 17.0834 27.5 16.875 27.5C10 30.4167 5.20835 36.875 4.37501 44.375C4.16668 45.4167 5.00001 46.4583 6.25001 46.6667C7.50001 46.875 42.7083 46.6667 43.75 46.6667H43.9584C45 46.4583 45.8333 45.4167 45.8333 44.375C44.7917 36.875 40 30.4167 33.125 27.5ZM25 33.9583L21.4583 30.4167C23.75 30 26.0417 30 28.3334 30.4167L25 33.9583ZM25 25.8333C20.4167 25.8333 16.875 22.2917 16.6667 17.7083H33.3334C33.125 22.2917 29.5833 25.8333 25 25.8333Z" fill="white"/>
</svg>
