<svg width="50" height="50" viewBox="0 0 50 50" fill="none" xmlns="http://www.w3.org/2000/svg">
<path d="M5.66665 15.9375C6.07405 16.0571 6.46571 16.225 6.83331 16.4375C8.1246 17.2082 9.60036 17.6151 11.1041 17.6151C12.6079 17.6151 14.0837 17.2082 15.375 16.4375C16.1884 15.9774 17.1071 15.7356 18.0416 15.7356C18.9762 15.7356 19.8949 15.9774 20.7083 16.4375C22.0152 17.1847 23.4945 17.5778 25 17.5778C26.5054 17.5778 27.9848 17.1847 29.2916 16.4375C30.1051 15.9774 31.0238 15.7356 31.9583 15.7356C32.8929 15.7356 33.8115 15.9774 34.625 16.4375C35.9453 17.192 37.4377 17.5938 38.9583 17.6041C40.4274 17.6011 41.8679 17.1978 43.125 16.4375C43.4926 16.225 43.8842 16.0571 44.2917 15.9375C44.8221 15.7828 45.2693 15.4237 45.535 14.9392C45.8007 14.4547 45.863 13.8846 45.7083 13.3541C45.5536 12.8237 45.1945 12.3764 44.7101 12.1108C44.2256 11.8451 43.6554 11.7828 43.125 11.9375C42.3945 12.1629 41.6948 12.4778 41.0417 12.875C40.378 13.2631 39.623 13.4676 38.8541 13.4676C38.0853 13.4676 37.3303 13.2631 36.6666 12.875C35.2222 12.0647 33.5937 11.6392 31.9375 11.6392C30.2813 11.6392 28.6528 12.0647 27.2083 12.875C26.5376 13.2647 25.7757 13.4699 25 13.4699C24.2243 13.4699 23.4624 13.2647 22.7916 12.875C21.3472 12.0647 19.7187 11.6392 18.0625 11.6392C16.4063 11.6392 14.7778 12.0647 13.3333 12.875C12.6696 13.2631 11.9146 13.4676 11.1458 13.4676C10.377 13.4676 9.62199 13.2631 8.95831 12.875C8.30518 12.4778 7.60542 12.1629 6.87498 11.9375C6.34455 11.7828 5.77438 11.8451 5.28991 12.1108C4.80544 12.3764 4.44636 12.8237 4.29165 13.3541C4.13694 13.8846 4.19928 14.4547 4.46495 14.9392C4.73063 15.4237 5.17788 15.7828 5.70831 15.9375H5.66665ZM43.1666 32.7708C42.4362 32.9962 41.7365 33.3111 41.0833 33.7083C40.4196 34.0964 39.6646 34.301 38.8958 34.301C38.127 34.301 37.372 34.0964 36.7083 33.7083C35.2638 32.898 33.6354 32.4725 31.9791 32.4725C30.3229 32.4725 28.6945 32.898 27.25 33.7083C26.5793 34.098 25.8174 34.3033 25.0416 34.3033C24.2659 34.3033 23.504 34.098 22.8333 33.7083C21.3888 32.898 19.7604 32.4725 18.1041 32.4725C16.4479 32.4725 14.8195 32.898 13.375 33.7083C12.7113 34.0964 11.9563 34.301 11.1875 34.301C10.4186 34.301 9.66366 34.0964 8.99998 33.7083C8.34684 33.3111 7.64709 32.9962 6.91665 32.7708C6.654 32.6942 6.37884 32.6701 6.10688 32.6998C5.83491 32.7295 5.57146 32.8126 5.33158 32.9441C5.09169 33.0757 4.88007 33.2532 4.70879 33.4665C4.5375 33.6798 4.40992 33.9248 4.33331 34.1875C4.25671 34.4501 4.23259 34.7253 4.26232 34.9972C4.29206 35.2692 4.37507 35.5326 4.50662 35.7725C4.63817 36.0124 4.81568 36.224 5.02902 36.3953C5.24235 36.5666 5.48734 36.6942 5.74998 36.7708C6.15739 36.8904 6.54905 37.0583 6.91665 37.2708C8.20793 38.0415 9.68369 38.4484 11.1875 38.4484C12.6913 38.4484 14.167 38.0415 15.4583 37.2708C16.2718 36.8107 17.1904 36.5689 18.125 36.5689C19.0595 36.5689 19.9782 36.8107 20.7916 37.2708C22.0985 38.0181 23.5779 38.4112 25.0833 38.4112C26.5888 38.4112 28.0681 38.0181 29.375 37.2708C30.1884 36.8107 31.1071 36.5689 32.0416 36.5689C32.9762 36.5689 33.8949 36.8107 34.7083 37.2708C36.0286 38.0254 37.521 38.4272 39.0416 38.4375C40.5107 38.4344 41.9513 38.0311 43.2083 37.2708C43.5759 37.0583 43.9676 36.8904 44.375 36.7708C44.9054 36.6161 45.3527 36.257 45.6183 35.7725C45.884 35.2881 45.9464 34.7179 45.7916 34.1875C45.6369 33.657 45.2779 33.2098 44.7934 32.9441C44.3089 32.6784 43.7388 32.6161 43.2083 32.7708H43.1666ZM43.1666 22.3541C42.4362 22.5795 41.7365 22.8944 41.0833 23.2916C40.4196 23.6797 39.6646 23.8843 38.8958 23.8843C38.127 23.8843 37.372 23.6797 36.7083 23.2916C35.2638 22.4814 33.6354 22.0558 31.9791 22.0558C30.3229 22.0558 28.6945 22.4814 27.25 23.2916C26.5793 23.6813 25.8174 23.8866 25.0416 23.8866C24.2659 23.8866 23.504 23.6813 22.8333 23.2916C21.3888 22.4814 19.7604 22.0558 18.1041 22.0558C16.4479 22.0558 14.8195 22.4814 13.375 23.2916C12.7113 23.6797 11.9563 23.8843 11.1875 23.8843C10.4186 23.8843 9.66366 23.6797 8.99998 23.2916C8.34684 22.8944 7.64709 22.5795 6.91665 22.3541C6.64386 22.2511 6.35249 22.2066 6.06139 22.2233C5.77029 22.24 5.48594 22.3176 5.22673 22.4512C4.96752 22.5847 4.73923 22.7711 4.55662 22.9985C4.37402 23.2258 4.24116 23.4889 4.16665 23.7708C4.09004 24.0334 4.06592 24.3086 4.09566 24.5806C4.12539 24.8525 4.2084 25.116 4.33995 25.3559C4.4715 25.5958 4.64901 25.8074 4.86235 25.9787C5.07569 26.1499 5.32067 26.2775 5.58331 26.3541C5.99072 26.4738 6.38238 26.6416 6.74998 26.8541C8.04126 27.6248 9.51703 28.0317 11.0208 28.0317C12.5246 28.0317 14.0004 27.6248 15.2916 26.8541C16.1051 26.394 17.0238 26.1522 17.9583 26.1522C18.8929 26.1522 19.8115 26.394 20.625 26.8541C21.9319 27.6014 23.4112 27.9945 24.9166 27.9945C26.4221 27.9945 27.9014 27.6014 29.2083 26.8541C30.0218 26.394 30.9404 26.1522 31.875 26.1522C32.8095 26.1522 33.7282 26.394 34.5416 26.8541C35.8619 27.6087 37.3543 28.0105 38.875 28.0208C40.3441 28.0178 41.7846 27.6144 43.0417 26.8541C43.4092 26.6416 43.8009 26.4738 44.2083 26.3541C44.7388 26.1994 45.186 25.8403 45.4517 25.3559C45.7174 24.8714 45.7797 24.3012 45.625 23.7708C45.4703 23.2404 45.1112 22.7931 44.6267 22.5274C44.1423 22.2618 43.5721 22.1994 43.0417 22.3541H43.1666Z" fill="white"/>
</svg>
