<svg width="27" height="28" viewBox="0 0 27 28" fill="none" xmlns="http://www.w3.org/2000/svg">
<path d="M1.69989 19.6168C0.8806 20.4371 0.42041 21.5491 0.42041 22.7085C0.42041 23.8679 0.8806 24.9798 1.69989 25.8002C2.52021 26.6195 3.63218 27.0796 4.79156 27.0796C5.95094 27.0796 7.06291 26.6195 7.88323 25.8002C8.65603 24.9708 9.07675 23.8739 9.05675 22.7404C9.03675 21.607 8.5776 20.5256 7.77602 19.724C6.97444 18.9225 5.89303 18.4633 4.75961 18.4433C3.62619 18.4233 2.52925 18.844 1.69989 19.6168V19.6168ZM5.82698 23.7439C5.55237 24.0185 5.17992 24.1728 4.79156 24.1728C4.4032 24.1728 4.03075 24.0185 3.75614 23.7439C3.48153 23.4693 3.32726 23.0969 3.32726 22.7085C3.32726 22.3201 3.48153 21.9477 3.75614 21.6731C3.89171 21.5364 4.05301 21.4279 4.23072 21.3539C4.40843 21.2798 4.59904 21.2417 4.79156 21.2417C4.98408 21.2417 5.17469 21.2798 5.3524 21.3539C5.53011 21.4279 5.69141 21.5364 5.82698 21.6731C5.96366 21.8087 6.07216 21.9699 6.14619 22.1477C6.22023 22.3254 6.25835 22.516 6.25835 22.7085C6.25835 22.901 6.22023 23.0916 6.14619 23.2693C6.07216 23.447 5.96366 23.6083 5.82698 23.7439ZM4.79156 12.5002C4.40479 12.5002 4.03385 12.6538 3.76036 12.9273C3.48687 13.2008 3.33323 13.5717 3.33323 13.9585C3.33323 14.3453 3.48687 14.7162 3.76036 14.9897C4.03385 15.2632 4.40479 15.4168 4.79156 15.4168C6.72543 15.4168 8.58009 16.1851 9.94755 17.5525C11.315 18.92 12.0832 20.7746 12.0832 22.7085C12.0832 23.0953 12.2369 23.4662 12.5104 23.7397C12.7839 24.0132 13.1548 24.1668 13.5416 24.1668C13.9283 24.1668 14.2993 24.0132 14.5728 23.7397C14.8462 23.4662 14.9999 23.0953 14.9999 22.7085C14.9999 20.0011 13.9244 17.4045 12.0099 15.4901C10.0955 13.5757 7.49898 12.5002 4.79156 12.5002ZM4.79156 6.66683C4.40479 6.66683 4.03385 6.82047 3.76036 7.09397C3.48687 7.36746 3.33323 7.73839 3.33323 8.12516C3.33323 8.51194 3.48687 8.88287 3.76036 9.15636C4.03385 9.42985 4.40479 9.5835 4.79156 9.5835C8.27253 9.5835 11.6109 10.9663 14.0723 13.4277C16.5338 15.8891 17.9166 19.2275 17.9166 22.7085C17.9166 23.0953 18.0702 23.4662 18.3437 23.7397C18.6172 24.0132 18.9881 24.1668 19.3749 24.1668C19.7617 24.1668 20.1326 24.0132 20.4061 23.7397C20.6796 23.4662 20.8332 23.0953 20.8332 22.7085C20.8219 18.456 19.1347 14.3793 16.1374 11.3627C13.1207 8.36538 9.04408 6.67813 4.79156 6.66683V6.66683ZM20.2645 7.23558C16.1502 3.14866 10.5907 0.848348 4.79156 0.833496C4.40479 0.833496 4.03385 0.987142 3.76036 1.26063C3.48687 1.53412 3.33323 1.90506 3.33323 2.29183C3.33323 2.6786 3.48687 3.04954 3.76036 3.32303C4.03385 3.59652 4.40479 3.75016 4.79156 3.75016C9.81962 3.75016 14.6417 5.74755 18.1971 9.30293C21.7525 12.8583 23.7499 17.6804 23.7499 22.7085C23.7499 23.0953 23.9035 23.4662 24.177 23.7397C24.4505 24.0132 24.8215 24.1668 25.2082 24.1668C25.595 24.1668 25.9659 24.0132 26.2394 23.7397C26.5129 23.4662 26.6666 23.0953 26.6666 22.7085C26.6517 16.9094 24.3514 11.3498 20.2645 7.23558Z" fill="white"/>
</svg>
