<svg width="35" height="35" viewBox="0 0 50 51" fill="none" xmlns="http://www.w3.org/2000/svg">
<path d="M39.5833 23.4167H27.0833V10.9167C27.0833 10.3642 26.8638 9.83427 26.4731 9.44357C26.0824 9.05287 25.5525 8.83337 25 8.83337C24.4475 8.83337 23.9176 9.05287 23.5269 9.44357C23.1362 9.83427 22.9167 10.3642 22.9167 10.9167V23.4167H10.4167C9.86413 23.4167 9.33422 23.6362 8.94352 24.0269C8.55282 24.4176 8.33333 24.9475 8.33333 25.5C8.33333 26.0526 8.55282 26.5825 8.94352 26.9732C9.33422 27.3639 9.86413 27.5834 10.4167 27.5834H22.9167V40.0834C22.9167 40.6359 23.1362 41.1658 23.5269 41.5565C23.9176 41.9472 24.4475 42.1667 25 42.1667C25.5525 42.1667 26.0824 41.9472 26.4731 41.5565C26.8638 41.1658 27.0833 40.6359 27.0833 40.0834V27.5834H39.5833C40.1359 27.5834 40.6658 27.3639 41.0565 26.9732C41.4472 26.5825 41.6667 26.0526 41.6667 25.5C41.6667 24.9475 41.4472 24.4176 41.0565 24.0269C40.6658 23.6362 40.1359 23.4167 39.5833 23.4167Z" fill="#434343"/>
</svg>
