<svg width="35" height="35" viewBox="0 0 35 35" fill="none" xmlns="http://www.w3.org/2000/svg">
<path d="M24.3643 16.4689L18.5314 10.636C18.2572 10.3636 17.8864 10.2107 17.4999 10.2107C17.1134 10.2107 16.7425 10.3636 16.4684 10.636L10.6356 16.4689C10.3662 16.7432 10.216 17.1128 10.2178 17.4972C10.2195 17.8817 10.373 18.2499 10.6449 18.5217C10.9167 18.7936 11.2849 18.9471 11.6693 18.9488C12.0538 18.9505 12.4234 18.8004 12.6976 18.531L16.0416 15.1871V23.3333C16.0416 23.7201 16.1953 24.091 16.4687 24.3645C16.7422 24.638 17.1132 24.7916 17.4999 24.7916C17.8867 24.7916 18.2576 24.638 18.5311 24.3645C18.8046 24.091 18.9583 23.7201 18.9583 23.3333V15.1871L22.3022 18.5311C22.5763 18.8017 22.9463 18.9529 23.3314 18.9517C23.7165 18.9505 24.0856 18.7969 24.3579 18.5246C24.6302 18.2523 24.7837 17.8832 24.785 17.4981C24.7862 17.113 24.6349 16.743 24.3643 16.4689Z" fill="white"/>
<path d="M17.5 2.91663C14.6157 2.91663 11.7961 3.77192 9.3979 5.37436C6.99968 6.9768 5.1305 9.2544 4.02672 11.9192C2.92294 14.5839 2.63415 17.5161 3.19685 20.345C3.75955 23.1739 5.14848 25.7724 7.18799 27.8119C9.22751 29.8515 11.826 31.2404 14.6549 31.8031C17.4838 32.3658 20.416 32.077 23.0808 30.9732C25.7455 29.8694 28.0231 28.0002 29.6256 25.602C31.228 23.2038 32.0833 20.3843 32.0833 17.5C32.079 13.6335 30.5412 9.92671 27.8072 7.19274C25.0732 4.45876 21.3664 2.92093 17.5 2.91663ZM24.3643 18.531C24.229 18.6665 24.0682 18.7739 23.8913 18.8472C23.7144 18.9205 23.5248 18.9583 23.3333 18.9583C23.1418 18.9583 22.9521 18.9205 22.7752 18.8472C22.5983 18.7739 22.4375 18.6665 22.3022 18.531L18.9583 15.1871V23.3333C18.9583 23.7201 18.8047 24.091 18.5312 24.3645C18.2577 24.638 17.8867 24.7916 17.5 24.7916C17.1132 24.7916 16.7423 24.638 16.4688 24.3645C16.1953 24.091 16.0416 23.7201 16.0416 23.3333V15.1871L12.6977 18.531C12.4234 18.8004 12.0538 18.9505 11.6694 18.9488C11.2849 18.947 10.9167 18.7935 10.6449 18.5217C10.373 18.2499 10.2196 17.8817 10.2178 17.4972C10.2161 17.1128 10.3662 16.7432 10.6356 16.4689L16.4685 10.636C16.7427 10.3636 17.1135 10.2107 17.5 10.2107C17.8865 10.2107 18.2574 10.3636 18.5315 10.636L24.3643 16.4689C24.4998 16.6043 24.6072 16.765 24.6805 16.9419C24.7538 17.1188 24.7916 17.3085 24.7916 17.5C24.7916 17.6915 24.7538 17.8811 24.6805 18.058C24.6072 18.2349 24.4998 18.3956 24.3643 18.531Z" fill="#389E0D"/>
</svg>
