<svg width="21" height="21" viewBox="0 0 21 21" fill="none" xmlns="http://www.w3.org/2000/svg">
<mask id="path-1-inside-1_7772_1709" fill="white">
<path d="M10.5003 12.2283C10.6651 12.2283 10.8263 12.1794 10.9633 12.0878C11.1003 11.9963 11.2072 11.8661 11.2702 11.7138C11.3333 11.5616 11.3498 11.394 11.3176 11.2324C11.2855 11.0707 11.2061 10.9222 11.0896 10.8057C10.973 10.6891 10.8246 10.6098 10.6629 10.5776C10.5013 10.5455 10.3337 10.562 10.1814 10.625C10.0292 10.6881 9.899 10.7949 9.80743 10.932C9.71587 11.069 9.66699 11.2301 9.66699 11.3949C9.66699 11.616 9.75479 11.8279 9.91107 11.9842C10.0674 12.1405 10.2793 12.2283 10.5003 12.2283ZM14.667 12.2283C14.8318 12.2283 14.9929 12.1794 15.13 12.0878C15.267 11.9963 15.3738 11.8661 15.4369 11.7138C15.5 11.5616 15.5165 11.394 15.4843 11.2324C15.4522 11.0707 15.3728 10.9222 15.2562 10.8057C15.1397 10.6891 14.9912 10.6098 14.8296 10.5776C14.6679 10.5455 14.5004 10.562 14.3481 10.625C14.1958 10.6881 14.0657 10.7949 13.9741 10.932C13.8825 11.069 13.8337 11.2301 13.8337 11.3949C13.8337 11.616 13.9215 11.8279 14.0777 11.9842C14.234 12.1405 14.446 12.2283 14.667 12.2283ZM10.5003 15.5616C10.6651 15.5616 10.8263 15.5127 10.9633 15.4212C11.1003 15.3296 11.2072 15.1994 11.2702 15.0472C11.3333 14.8949 11.3498 14.7273 11.3176 14.5657C11.2855 14.404 11.2061 14.2556 11.0896 14.139C10.973 14.0225 10.8246 13.9431 10.6629 13.911C10.5013 13.8788 10.3337 13.8953 10.1814 13.9584C10.0292 14.0214 9.899 14.1283 9.80743 14.2653C9.71587 14.4023 9.66699 14.5635 9.66699 14.7283C9.66699 14.9493 9.75479 15.1612 9.91107 15.3175C10.0674 15.4738 10.2793 15.5616 10.5003 15.5616ZM14.667 15.5616C14.8318 15.5616 14.9929 15.5127 15.13 15.4212C15.267 15.3296 15.3738 15.1994 15.4369 15.0472C15.5 14.8949 15.5165 14.7273 15.4843 14.5657C15.4522 14.404 15.3728 14.2556 15.2562 14.139C15.1397 14.0225 14.9912 13.9431 14.8296 13.911C14.6679 13.8788 14.5004 13.8953 14.3481 13.9584C14.1958 14.0214 14.0657 14.1283 13.9741 14.2653C13.8825 14.4023 13.8337 14.5635 13.8337 14.7283C13.8337 14.9493 13.9215 15.1612 14.0777 15.3175C14.234 15.4738 14.446 15.5616 14.667 15.5616ZM6.33366 12.2283C6.49848 12.2283 6.65959 12.1794 6.79663 12.0878C6.93368 11.9963 7.04049 11.8661 7.10356 11.7138C7.16663 11.5616 7.18313 11.394 7.15098 11.2324C7.11883 11.0707 7.03946 10.9222 6.92291 10.8057C6.80637 10.6891 6.65789 10.6098 6.49623 10.5776C6.33458 10.5455 6.16703 10.562 6.01476 10.625C5.86248 10.6881 5.73234 10.7949 5.64077 10.932C5.5492 11.069 5.50033 11.2301 5.50033 11.3949C5.50033 11.616 5.58812 11.8279 5.7444 11.9842C5.90068 12.1405 6.11265 12.2283 6.33366 12.2283ZM16.3337 3.89494H15.5003V3.0616C15.5003 2.84059 15.4125 2.62863 15.2562 2.47235C15.1 2.31607 14.888 2.22827 14.667 2.22827C14.446 2.22827 14.234 2.31607 14.0777 2.47235C13.9215 2.62863 13.8337 2.84059 13.8337 3.0616V3.89494H7.16699V3.0616C7.16699 2.84059 7.07919 2.62863 6.92291 2.47235C6.76663 2.31607 6.55467 2.22827 6.33366 2.22827C6.11265 2.22827 5.90068 2.31607 5.7444 2.47235C5.58812 2.62863 5.50033 2.84059 5.50033 3.0616V3.89494H4.66699C4.00395 3.89494 3.36807 4.15833 2.89923 4.62717C2.43038 5.09601 2.16699 5.7319 2.16699 6.39494V16.3949C2.16699 17.058 2.43038 17.6939 2.89923 18.1627C3.36807 18.6315 4.00395 18.8949 4.66699 18.8949H16.3337C16.9967 18.8949 17.6326 18.6315 18.1014 18.1627C18.5703 17.6939 18.8337 17.058 18.8337 16.3949V6.39494C18.8337 5.7319 18.5703 5.09601 18.1014 4.62717C17.6326 4.15833 16.9967 3.89494 16.3337 3.89494V3.89494ZM17.167 16.3949C17.167 16.616 17.0792 16.8279 16.9229 16.9842C16.7666 17.1405 16.5547 17.2283 16.3337 17.2283H4.66699C4.44598 17.2283 4.23402 17.1405 4.07774 16.9842C3.92146 16.8279 3.83366 16.616 3.83366 16.3949V8.89494H17.167V16.3949ZM17.167 7.22827H3.83366V6.39494C3.83366 6.17392 3.92146 5.96196 4.07774 5.80568C4.23402 5.6494 4.44598 5.5616 4.66699 5.5616H16.3337C16.5547 5.5616 16.7666 5.6494 16.9229 5.80568C17.0792 5.96196 17.167 6.17392 17.167 6.39494V7.22827ZM6.33366 15.5616C6.49848 15.5616 6.65959 15.5127 6.79663 15.4212C6.93368 15.3296 7.04049 15.1994 7.10356 15.0472C7.16663 14.8949 7.18313 14.7273 7.15098 14.5657C7.11883 14.404 7.03946 14.2556 6.92291 14.139C6.80637 14.0225 6.65789 13.9431 6.49623 13.911C6.33458 13.8788 6.16703 13.8953 6.01476 13.9584C5.86248 14.0214 5.73234 14.1283 5.64077 14.2653C5.5492 14.4023 5.50033 14.5635 5.50033 14.7283C5.50033 14.9493 5.58812 15.1612 5.7444 15.3175C5.90068 15.4738 6.11265 15.5616 6.33366 15.5616Z"/>
</mask>
<path d="M10.5003 12.2283C10.6651 12.2283 10.8263 12.1794 10.9633 12.0878C11.1003 11.9963 11.2072 11.8661 11.2702 11.7138C11.3333 11.5616 11.3498 11.394 11.3176 11.2324C11.2855 11.0707 11.2061 10.9222 11.0896 10.8057C10.973 10.6891 10.8246 10.6098 10.6629 10.5776C10.5013 10.5455 10.3337 10.562 10.1814 10.625C10.0292 10.6881 9.899 10.7949 9.80743 10.932C9.71587 11.069 9.66699 11.2301 9.66699 11.3949C9.66699 11.616 9.75479 11.8279 9.91107 11.9842C10.0674 12.1405 10.2793 12.2283 10.5003 12.2283ZM14.667 12.2283C14.8318 12.2283 14.9929 12.1794 15.13 12.0878C15.267 11.9963 15.3738 11.8661 15.4369 11.7138C15.5 11.5616 15.5165 11.394 15.4843 11.2324C15.4522 11.0707 15.3728 10.9222 15.2562 10.8057C15.1397 10.6891 14.9912 10.6098 14.8296 10.5776C14.6679 10.5455 14.5004 10.562 14.3481 10.625C14.1958 10.6881 14.0657 10.7949 13.9741 10.932C13.8825 11.069 13.8337 11.2301 13.8337 11.3949C13.8337 11.616 13.9215 11.8279 14.0777 11.9842C14.234 12.1405 14.446 12.2283 14.667 12.2283ZM10.5003 15.5616C10.6651 15.5616 10.8263 15.5127 10.9633 15.4212C11.1003 15.3296 11.2072 15.1994 11.2702 15.0472C11.3333 14.8949 11.3498 14.7273 11.3176 14.5657C11.2855 14.404 11.2061 14.2556 11.0896 14.139C10.973 14.0225 10.8246 13.9431 10.6629 13.911C10.5013 13.8788 10.3337 13.8953 10.1814 13.9584C10.0292 14.0214 9.899 14.1283 9.80743 14.2653C9.71587 14.4023 9.66699 14.5635 9.66699 14.7283C9.66699 14.9493 9.75479 15.1612 9.91107 15.3175C10.0674 15.4738 10.2793 15.5616 10.5003 15.5616ZM14.667 15.5616C14.8318 15.5616 14.9929 15.5127 15.13 15.4212C15.267 15.3296 15.3738 15.1994 15.4369 15.0472C15.5 14.8949 15.5165 14.7273 15.4843 14.5657C15.4522 14.404 15.3728 14.2556 15.2562 14.139C15.1397 14.0225 14.9912 13.9431 14.8296 13.911C14.6679 13.8788 14.5004 13.8953 14.3481 13.9584C14.1958 14.0214 14.0657 14.1283 13.9741 14.2653C13.8825 14.4023 13.8337 14.5635 13.8337 14.7283C13.8337 14.9493 13.9215 15.1612 14.0777 15.3175C14.234 15.4738 14.446 15.5616 14.667 15.5616ZM6.33366 12.2283C6.49848 12.2283 6.65959 12.1794 6.79663 12.0878C6.93368 11.9963 7.04049 11.8661 7.10356 11.7138C7.16663 11.5616 7.18313 11.394 7.15098 11.2324C7.11883 11.0707 7.03946 10.9222 6.92291 10.8057C6.80637 10.6891 6.65789 10.6098 6.49623 10.5776C6.33458 10.5455 6.16703 10.562 6.01476 10.625C5.86248 10.6881 5.73234 10.7949 5.64077 10.932C5.5492 11.069 5.50033 11.2301 5.50033 11.3949C5.50033 11.616 5.58812 11.8279 5.7444 11.9842C5.90068 12.1405 6.11265 12.2283 6.33366 12.2283ZM16.3337 3.89494H15.5003V3.0616C15.5003 2.84059 15.4125 2.62863 15.2562 2.47235C15.1 2.31607 14.888 2.22827 14.667 2.22827C14.446 2.22827 14.234 2.31607 14.0777 2.47235C13.9215 2.62863 13.8337 2.84059 13.8337 3.0616V3.89494H7.16699V3.0616C7.16699 2.84059 7.07919 2.62863 6.92291 2.47235C6.76663 2.31607 6.55467 2.22827 6.33366 2.22827C6.11265 2.22827 5.90068 2.31607 5.7444 2.47235C5.58812 2.62863 5.50033 2.84059 5.50033 3.0616V3.89494H4.66699C4.00395 3.89494 3.36807 4.15833 2.89923 4.62717C2.43038 5.09601 2.16699 5.7319 2.16699 6.39494V16.3949C2.16699 17.058 2.43038 17.6939 2.89923 18.1627C3.36807 18.6315 4.00395 18.8949 4.66699 18.8949H16.3337C16.9967 18.8949 17.6326 18.6315 18.1014 18.1627C18.5703 17.6939 18.8337 17.058 18.8337 16.3949V6.39494C18.8337 5.7319 18.5703 5.09601 18.1014 4.62717C17.6326 4.15833 16.9967 3.89494 16.3337 3.89494V3.89494ZM17.167 16.3949C17.167 16.616 17.0792 16.8279 16.9229 16.9842C16.7666 17.1405 16.5547 17.2283 16.3337 17.2283H4.66699C4.44598 17.2283 4.23402 17.1405 4.07774 16.9842C3.92146 16.8279 3.83366 16.616 3.83366 16.3949V8.89494H17.167V16.3949ZM17.167 7.22827H3.83366V6.39494C3.83366 6.17392 3.92146 5.96196 4.07774 5.80568C4.23402 5.6494 4.44598 5.5616 4.66699 5.5616H16.3337C16.5547 5.5616 16.7666 5.6494 16.9229 5.80568C17.0792 5.96196 17.167 6.17392 17.167 6.39494V7.22827ZM6.33366 15.5616C6.49848 15.5616 6.65959 15.5127 6.79663 15.4212C6.93368 15.3296 7.04049 15.1994 7.10356 15.0472C7.16663 14.8949 7.18313 14.7273 7.15098 14.5657C7.11883 14.404 7.03946 14.2556 6.92291 14.139C6.80637 14.0225 6.65789 13.9431 6.49623 13.911C6.33458 13.8788 6.16703 13.8953 6.01476 13.9584C5.86248 14.0214 5.73234 14.1283 5.64077 14.2653C5.5492 14.4023 5.50033 14.5635 5.50033 14.7283C5.50033 14.9493 5.58812 15.1612 5.7444 15.3175C5.90068 15.4738 6.11265 15.5616 6.33366 15.5616Z" fill="black" stroke="white" stroke-width="2" stroke-linecap="square" mask="url(#path-1-inside-1_7772_1709)"/>
</svg>
