<svg width="199" height="45" viewBox="0 0 199 45" fill="none" xmlns="http://www.w3.org/2000/svg">
<path d="M176.39 0H22.0494C9.87187 0 0 9.89761 0 22.1069C0 34.3162 9.87187 44.2138 22.0494 44.2138H176.39C188.568 44.2138 198.44 34.3162 198.44 22.1069C198.44 9.89761 188.568 0 176.39 0Z" fill="url(#paint0_linear_7544_3833)"/>
<path d="M176.096 41.0115H22.3435C12.1831 41.0115 3.9165 32.532 3.9165 22.1071C3.9165 11.6822 12.1831 3.20264 22.3435 3.20264H176.096C186.257 3.20264 194.523 11.6822 194.523 22.1071C194.523 32.532 186.257 41.0115 176.096 41.0115ZM22.3435 3.52858C12.3586 3.52858 4.2416 11.8633 4.2416 22.1071C4.2416 32.3509 12.3637 40.6856 22.3435 40.6856H176.096C186.081 40.6856 194.198 32.3509 194.198 22.1071C194.198 11.8633 186.076 3.52858 176.096 3.52858H22.3435Z" fill="url(#paint1_linear_7544_3833)"/>
<path d="M21.7965 16.809V19.5407H29.3613V23.5088H21.7965V26.2612H30.3675V30.2294H17.0439V12.8408H30.1353V16.809H21.7965Z" fill="white"/>
<path d="M44.7233 30.2294L44.7026 19.9339L41.4827 28.5169H38.3763L35.1563 19.9339V30.2294H30.9766V12.8408H36.0697L39.9295 22.4689L43.7893 12.8408H48.8824V30.2346H44.7233V30.2294Z" fill="white"/>
<path d="M54.4805 16.809V19.5407H62.0454V23.5088H54.4805V26.2612H63.0516V30.2294H49.728V12.8408H62.8194V16.809H54.4805Z" fill="white"/>
<path d="M70.9989 25.5421H68.4859V30.2294H63.7334V12.8408H71.2053C75.5038 12.8408 77.9703 15.0758 77.9703 19.0181C77.9703 21.5998 77.0105 23.483 75.2716 24.5487L78.5173 30.2294H73.1249L70.9989 25.5421ZM71.2053 21.5739C72.6244 21.5739 73.4449 20.7306 73.4449 19.1682C73.4449 17.6057 72.6244 16.809 71.2053 16.809H68.4859V21.5739H71.2053Z" fill="white"/>
<path d="M93.9309 21.2269V28.2217C92.1919 29.5099 89.359 30.4567 87.0782 30.4567C82.1192 30.4567 78.4658 26.6592 78.4658 21.5477C78.4658 16.4361 82.2379 12.6904 87.3981 12.6904C89.844 12.6904 92.4705 13.7096 94.1631 15.3186L91.4643 18.8677C90.3652 17.7244 88.7655 16.9845 87.3723 16.9845C85.0657 16.9845 83.3267 18.9453 83.3267 21.5477C83.3267 24.15 85.0863 26.1367 87.4187 26.1367C88.0792 26.1367 88.9719 25.8884 89.8389 25.4693V21.2269H93.9309Z" fill="white"/>
<path d="M99.441 16.809V19.5407H107.006V23.5088H99.441V26.2612H108.012V30.2294H94.6885V12.8408H107.78V16.809H99.441Z" fill="white"/>
<path d="M119.845 30.2294L113.059 20.5547V30.2294H108.694V12.8408H112.76L119.546 22.5672V12.8408H123.885V30.2346H119.84L119.845 30.2294Z" fill="white"/>
<path d="M139.908 15.7636L137.168 19.2868C136.162 17.8951 134.676 16.9794 133.35 16.9794C131.177 16.9794 129.531 18.8884 129.531 21.4442C129.531 24 131.177 25.9349 133.35 25.9349C134.583 25.9349 136.069 25.1434 137.168 23.9276L139.908 27.1042C138.169 29.1374 135.543 30.4515 133.123 30.4515C128.257 30.4515 124.67 26.6282 124.67 21.4959C124.67 16.3637 128.329 12.6904 133.283 12.6904C135.703 12.6904 138.288 13.8804 139.908 15.7687V15.7636Z" fill="white"/>
<path d="M149.681 30.2294H144.928V24.8229L139.056 12.8408H143.809L147.307 19.939L150.713 12.8408H155.445L149.686 24.7247V30.2346L149.681 30.2294Z" fill="white"/>
<path d="M181.602 23.8813C180.606 22.5103 179.424 21.4704 178.057 20.7512C176.689 20.0321 174.966 19.3026 172.881 18.5524C171.88 18.2058 171.024 17.8799 170.306 17.5694C169.661 17.2901 169.125 17.0262 168.707 16.7727C168.707 16.7727 168.707 16.7727 168.696 16.7727C167.819 16.2398 167.375 15.5103 167.375 14.5791C167.375 13.891 167.546 13.3685 167.881 12.996C167.912 12.9597 167.943 12.9287 167.979 12.8977C168.382 12.5252 168.944 12.3389 169.656 12.3389C170.497 12.3389 171.173 12.5872 171.684 13.0839C172.195 13.5806 172.515 14.3463 172.639 15.3758H182.479C182.262 12.1371 181.029 9.61757 178.774 7.82749C176.519 6.03742 173.495 5.13721 169.708 5.13721C167.375 5.13721 165.291 5.52006 163.459 6.28575C161.993 6.89624 160.775 7.73437 159.811 8.80014C159.563 9.06917 159.336 9.35372 159.124 9.64861C158.954 9.89177 158.794 10.1401 158.649 10.3936C157.906 11.7129 157.54 13.2288 157.54 14.9516C157.54 17.1038 158.03 18.8628 159.011 20.2339C159.651 21.1289 160.368 21.8791 161.168 22.4792C161.591 22.8052 162.04 23.0794 162.504 23.3173C163.856 24.0054 165.574 24.7039 167.659 25.423C168.567 25.7283 169.357 26.018 170.038 26.2974C170.827 26.6233 171.462 26.9285 171.947 27.2234C172.85 27.7718 173.299 28.5427 173.299 29.5412C173.299 30.2862 173.072 30.8657 172.623 31.2692C172.169 31.6728 171.54 31.8797 170.735 31.8797C169.832 31.8797 169.073 31.6003 168.449 31.0364C167.824 30.4776 167.468 29.6188 167.375 28.4651H157.628C157.844 31.8642 159.191 34.482 161.663 36.3187C164.135 38.1553 167.282 39.0762 171.106 39.0762C173.624 39.0762 175.781 38.6416 177.587 37.7673C179.388 36.8929 180.756 35.7082 181.69 34.213C181.994 33.7319 182.242 33.23 182.448 32.7127C182.877 31.621 183.093 30.457 183.093 29.2101C183.093 27.0268 182.598 25.2523 181.602 23.8813Z" fill="url(#paint2_linear_7544_3833)"/>
<path d="M182.454 32.7127C182.252 33.23 182 33.7319 181.695 34.213C180.761 35.7082 179.394 36.893 177.593 37.7673C175.787 38.6416 173.63 39.0762 171.112 39.0762C167.288 39.0762 164.14 38.1553 161.669 36.3187C159.197 34.482 157.85 31.859 157.633 28.4651H167.381C167.474 29.6188 167.83 30.4725 168.454 31.0364C169.073 31.6003 169.837 31.8797 170.74 31.8797C171.545 31.8797 172.175 31.6779 172.629 31.2692C173.078 30.8657 173.305 30.2862 173.305 29.5412C173.305 28.5427 172.856 27.7718 171.953 27.2234C171.468 26.9337 170.833 26.6233 170.044 26.2974C170.198 26.3388 177.572 28.3358 182.454 32.7127Z" fill="url(#paint3_linear_7544_3833)"/>
<path d="M182.489 15.3758H172.649C172.525 14.3463 172.205 13.5857 171.694 13.0839C171.178 12.5872 170.502 12.3389 169.666 12.3389C169.558 12.3389 169.449 12.3389 169.346 12.3544C168.779 12.401 168.33 12.5821 167.984 12.8977C167.581 13.2702 167.38 13.8341 167.38 14.5791C167.38 15.5103 167.819 16.2398 168.701 16.7727C168.433 16.6589 161.601 13.7203 158.654 10.3936C158.799 10.1349 158.954 9.8866 159.129 9.64861C160.187 8.16895 161.632 7.04628 163.464 6.28058C164.207 5.97016 164.996 5.72183 165.827 5.54075C167.034 5.27172 168.33 5.13721 169.718 5.13721C173.51 5.13721 176.529 6.03742 178.784 7.82749C181.039 9.62274 182.272 12.1371 182.489 15.3758Z" fill="url(#paint4_linear_7544_3833)"/>
<path style="mix-blend-mode:multiply" d="M168.707 16.7725C168.438 16.6587 161.606 13.72 158.66 10.3934C158.804 10.1347 158.959 9.88638 159.134 9.64839C160.192 8.16873 161.637 7.04605 163.469 6.28036C164.212 5.96994 165.002 5.7216 165.832 5.54053C167.086 6.9581 167.948 8.67575 168.665 10.4244C168.923 11.0556 169.166 11.6971 169.352 12.3542C168.784 12.4008 168.335 12.5818 167.989 12.8974C167.587 13.2699 167.386 13.8339 167.386 14.5789C167.386 15.5101 167.824 16.2396 168.707 16.7725Z" fill="url(#paint5_linear_7544_3833)"/>
<defs>
<linearGradient id="paint0_linear_7544_3833" x1="0" y1="22.1069" x2="198.44" y2="22.1069" gradientUnits="userSpaceOnUse">
<stop offset="0.22" stop-color="#EA541E"/>
<stop offset="0.7" stop-color="#EF7631"/>
<stop offset="0.85" stop-color="#F18339"/>
</linearGradient>
<linearGradient id="paint1_linear_7544_3833" x1="3.9165" y1="22.1071" x2="194.523" y2="22.1071" gradientUnits="userSpaceOnUse">
<stop offset="0.19" stop-color="#E5352B"/>
<stop offset="0.27" stop-color="#BB512D"/>
<stop offset="0.44" stop-color="#539833"/>
<stop offset="0.48" stop-color="#3AAA35"/>
<stop offset="0.53" stop-color="#2CA537"/>
<stop offset="0.62" stop-color="#0A993D"/>
<stop offset="0.65" stop-color="#009640"/>
<stop offset="0.69" stop-color="#089873"/>
<stop offset="0.73" stop-color="#0E999F"/>
<stop offset="0.77" stop-color="#139ABE"/>
<stop offset="0.8" stop-color="#169BD2"/>
<stop offset="0.82" stop-color="#189CD9"/>
</linearGradient>
<linearGradient id="paint2_linear_7544_3833" x1="157.545" y1="22.1067" x2="183.098" y2="22.1067" gradientUnits="userSpaceOnUse">
<stop stop-color="#2360AB"/>
<stop offset="0.25" stop-color="#09478A"/>
<stop offset="0.75" stop-color="#2261AC"/>
<stop offset="1" stop-color="#8BB8E4"/>
</linearGradient>
<linearGradient id="paint3_linear_7544_3833" x1="181.189" y1="31.3675" x2="144.146" y2="36.2522" gradientUnits="userSpaceOnUse">
<stop stop-color="#2360AB"/>
<stop offset="0.25" stop-color="#09478A"/>
<stop offset="0.75" stop-color="#2261AC"/>
<stop offset="1" stop-color="#8BB8E4"/>
</linearGradient>
<linearGradient id="paint4_linear_7544_3833" x1="158.654" y1="10.9524" x2="182.489" y2="10.9524" gradientUnits="userSpaceOnUse">
<stop stop-color="#2360AB"/>
<stop offset="0.25" stop-color="#09478A"/>
<stop offset="0.75" stop-color="#2261AC"/>
<stop offset="1" stop-color="#8BB8E4"/>
</linearGradient>
<linearGradient id="paint5_linear_7544_3833" x1="159.908" y1="17.7193" x2="171.827" y2="4.27275" gradientUnits="userSpaceOnUse">
<stop stop-color="#010101"/>
<stop offset="1" stop-color="#010101" stop-opacity="0"/>
</linearGradient>
</defs>
</svg>
