<svg width="41" height="41" viewBox="0 0 41 41" fill="none" xmlns="http://www.w3.org/2000/svg">
<path d="M20.4996 24.2505C20.1998 24.2504 19.9053 24.1716 19.6455 24.0219L4.27047 15.1433C3.45322 14.6712 3.17336 13.626 3.6454 12.8088C3.79533 12.5492 4.0109 12.3336 4.27047 12.1837L19.6455 3.31171C20.1744 3.00807 20.8248 3.00807 21.3538 3.31171L36.7288 12.1837C37.5461 12.6558 37.8259 13.7009 37.3539 14.5182C37.2039 14.7778 36.9884 14.9933 36.7288 15.1433L21.3538 24.0219C21.094 24.1716 20.7995 24.2504 20.4996 24.2505Z" fill="white"/>
<path d="M36.7288 19.0167L33.3734 17.0806L21.3538 24.0216C20.8251 24.3264 20.1741 24.3264 19.6455 24.0216L7.62582 17.0806L4.27047 19.0167C3.45322 19.4888 3.17336 20.534 3.6454 21.3512C3.79533 21.6108 4.0109 21.8264 4.27047 21.9763L19.6455 30.8549C20.1741 31.1597 20.8251 31.1597 21.3538 30.8549L36.7288 21.9763C37.5461 21.5042 37.8259 20.4591 37.3539 19.6418C37.2039 19.3822 36.9884 19.1667 36.7288 19.0167Z" fill="#87E8DE"/>
<path d="M36.7288 25.8502L33.3734 23.9141L21.3538 30.8551C20.8251 31.1598 20.1741 31.1598 19.6455 30.8551L7.62582 23.9141L4.27047 25.8502C3.45322 26.3223 3.17336 27.3675 3.6454 28.1847C3.79533 28.4443 4.0109 28.6599 4.27047 28.8098L19.6455 37.6884C20.1741 37.9932 20.8251 37.9932 21.3538 37.6884L36.7288 28.8098C37.5461 28.3377 37.8259 27.2925 37.3539 26.4753C37.2039 26.2157 36.9884 26.0002 36.7288 25.8502Z" fill="#006D75"/>
</svg>
