<svg width="41" height="42" viewBox="0 0 41 42" fill="none" xmlns="http://www.w3.org/2000/svg">
<path d="M20.4996 24.7505C20.1998 24.7504 19.9053 24.6716 19.6455 24.5219L4.27047 15.6433C3.45322 15.1712 3.17336 14.126 3.6454 13.3088C3.79533 13.0492 4.0109 12.8336 4.27047 12.6837L19.6455 3.81171C20.1744 3.50807 20.8248 3.50807 21.3538 3.81171L36.7288 12.6837C37.5461 13.1558 37.8259 14.2009 37.3539 15.0182C37.2039 15.2778 36.9884 15.4933 36.7288 15.6433L21.3538 24.5219C21.094 24.6716 20.7995 24.7504 20.4996 24.7505Z" fill="white"/>
<path d="M36.7288 19.5167L33.3734 17.5806L21.3538 24.5216C20.8251 24.8264 20.1741 24.8264 19.6455 24.5216L7.62582 17.5806L4.27047 19.5167C3.45322 19.9888 3.17336 21.034 3.6454 21.8512C3.79533 22.1108 4.0109 22.3264 4.27047 22.4763L19.6455 31.3549C20.1741 31.6597 20.8251 31.6597 21.3538 31.3549L36.7288 22.4763C37.5461 22.0042 37.8259 20.9591 37.3539 20.1418C37.2039 19.8822 36.9884 19.6667 36.7288 19.5167Z" fill="#87E8DE"/>
<path d="M36.7288 26.3502L33.3734 24.4141L21.3538 31.3551C20.8251 31.6598 20.1741 31.6598 19.6455 31.3551L7.62582 24.4141L4.27047 26.3502C3.45322 26.8223 3.17336 27.8675 3.6454 28.6847C3.79533 28.9443 4.0109 29.1599 4.27047 29.3098L19.6455 38.1884C20.1741 38.4932 20.8251 38.4932 21.3538 38.1884L36.7288 29.3098C37.5461 28.8377 37.8259 27.7925 37.3539 26.9753C37.2039 26.7157 36.9884 26.5002 36.7288 26.3502Z" fill="#006D75"/>
</svg>
