<svg width="50" height="50" viewBox="0 0 34 42" fill="none" xmlns="http://www.w3.org/2000/svg">
<path d="M33.4375 15.8958C33.2644 15.5522 32.9995 15.2633 32.6722 15.061C32.345 14.8588 31.9681 14.7511 31.5833 14.7499H21.1667V2.24995C21.189 1.79304 21.0604 1.34147 20.8006 0.964948C20.5408 0.588425 20.1643 0.307879 19.7292 0.166614C19.3109 0.0289957 18.8598 0.0274491 18.4406 0.162196C18.0213 0.296944 17.6556 0.561054 17.3958 0.916614L0.729183 23.8333C0.520362 24.1351 0.394972 24.4867 0.365705 24.8525C0.336438 25.2184 0.404333 25.5854 0.562517 25.9166C0.708187 26.2953 0.961242 26.6231 1.29062 26.86C1.62 27.0968 2.01137 27.2324 2.41668 27.2499H12.8333V39.7499C12.8337 40.1893 12.9729 40.6173 13.231 40.9727C13.4892 41.3282 13.8532 41.5929 14.2708 41.7291C14.4802 41.794 14.6976 41.8291 14.9167 41.8333C15.2454 41.8341 15.5697 41.7572 15.8629 41.6087C16.1562 41.4603 16.4102 41.2445 16.6042 40.9791L33.2708 18.0624C33.4953 17.7516 33.6296 17.3848 33.6591 17.0026C33.6885 16.6203 33.6118 16.2373 33.4375 15.8958ZM17 33.3333V25.1666C17 24.6141 16.7805 24.0842 16.3898 23.6935C15.9991 23.3028 15.4692 23.0833 14.9167 23.0833H6.58335L17 8.66661V16.8333C17 17.3858 17.2195 17.9157 17.6102 18.3064C18.0009 18.6971 18.5308 18.9166 19.0833 18.9166H27.4167L17 33.3333Z" fill="white"/>
</svg>
