<svg width="36" height="37" viewBox="0 0 36 37" fill="none" xmlns="http://www.w3.org/2000/svg">
<rect x="0.5" y="0.561523" width="35" height="35" rx="3.5" stroke="#B62F18"/>
<path d="M28 16.1615C28.1 15.6615 27.7 15.0615 27.2 15.0615L21.5 14.2615L18.9 9.06146C18.8 8.86146 18.7 8.76146 18.5 8.66146C18 8.36146 17.4 8.56146 17.1 9.06146L14.6 14.2615L8.9 15.0615C8.6 15.0615 8.4 15.1615 8.3 15.3615C7.9 15.7615 7.9 16.3615 8.3 16.7615L12.4 20.7615L11.4 26.4615C11.4 26.6615 11.4 26.8615 11.5 27.0615C11.8 27.5615 12.4 27.7615 12.9 27.4615L18 24.7615L23.1 27.4615C23.2 27.5615 23.4 27.5615 23.6 27.5615C23.7 27.5615 23.7 27.5615 23.8 27.5615C24.3 27.4615 24.7 26.9615 24.6 26.3615L23.6 20.6615L27.7 16.6615C27.9 16.5615 28 16.3615 28 16.1615Z" fill="#3F0F0B"/>
</svg>
