<svg width="36" height="37" viewBox="0 0 36 37" fill="none" xmlns="http://www.w3.org/2000/svg">
<rect y="0.0615234" width="36" height="36" rx="4" fill="#F9CCAF"/>
<path d="M16 24.0615C16.2652 24.0615 16.5196 23.9562 16.7071 23.7686C16.8946 23.5811 17 23.3267 17 23.0615V17.0615C17 16.7963 16.8946 16.542 16.7071 16.3544C16.5196 16.1669 16.2652 16.0615 16 16.0615C15.7348 16.0615 15.4804 16.1669 15.2929 16.3544C15.1054 16.542 15 16.7963 15 17.0615V23.0615C15 23.3267 15.1054 23.5811 15.2929 23.7686C15.4804 23.9562 15.7348 24.0615 16 24.0615ZM26 12.0615H22V11.0615C22 10.2659 21.6839 9.50281 21.1213 8.9402C20.5587 8.37759 19.7956 8.06152 19 8.06152H17C16.2044 8.06152 15.4413 8.37759 14.8787 8.9402C14.3161 9.50281 14 10.2659 14 11.0615V12.0615H10C9.73478 12.0615 9.48043 12.1669 9.29289 12.3544C9.10536 12.542 9 12.7963 9 13.0615C9 13.3267 9.10536 13.5811 9.29289 13.7686C9.48043 13.9562 9.73478 14.0615 10 14.0615H11V25.0615C11 25.8572 11.3161 26.6202 11.8787 27.1828C12.4413 27.7455 13.2044 28.0615 14 28.0615H22C22.7956 28.0615 23.5587 27.7455 24.1213 27.1828C24.6839 26.6202 25 25.8572 25 25.0615V14.0615H26C26.2652 14.0615 26.5196 13.9562 26.7071 13.7686C26.8946 13.5811 27 13.3267 27 13.0615C27 12.7963 26.8946 12.542 26.7071 12.3544C26.5196 12.1669 26.2652 12.0615 26 12.0615ZM16 11.0615C16 10.7963 16.1054 10.542 16.2929 10.3544C16.4804 10.1669 16.7348 10.0615 17 10.0615H19C19.2652 10.0615 19.5196 10.1669 19.7071 10.3544C19.8946 10.542 20 10.7963 20 11.0615V12.0615H16V11.0615ZM23 25.0615C23 25.3267 22.8946 25.5811 22.7071 25.7686C22.5196 25.9562 22.2652 26.0615 22 26.0615H14C13.7348 26.0615 13.4804 25.9562 13.2929 25.7686C13.1054 25.5811 13 25.3267 13 25.0615V14.0615H23V25.0615ZM20 24.0615C20.2652 24.0615 20.5196 23.9562 20.7071 23.7686C20.8946 23.5811 21 23.3267 21 23.0615V17.0615C21 16.7963 20.8946 16.542 20.7071 16.3544C20.5196 16.1669 20.2652 16.0615 20 16.0615C19.7348 16.0615 19.4804 16.1669 19.2929 16.3544C19.1054 16.542 19 16.7963 19 17.0615V23.0615C19 23.3267 19.1054 23.5811 19.2929 23.7686C19.4804 23.9562 19.7348 24.0615 20 24.0615Z" fill="#B62F18"/>
</svg>
