<svg width="35" height="31" viewBox="0 0 35 31" fill="none" xmlns="http://www.w3.org/2000/svg">
<path d="M19.7208 15.8758C20.6323 15.0868 21.3634 14.1109 21.8645 13.0144C22.3656 11.9179 22.625 10.7264 22.625 9.52079C22.625 7.2554 21.725 5.0828 20.1232 3.48092C18.5213 1.87905 16.3487 0.979126 14.0833 0.979126C11.8179 0.979126 9.6453 1.87905 8.04342 3.48092C6.44155 5.0828 5.54163 7.2554 5.54163 9.52079C5.54161 10.7264 5.80095 11.9179 6.30205 13.0144C6.80314 14.1109 7.53426 15.0868 8.44579 15.8758C6.05436 16.9587 4.02542 18.7074 2.60155 20.9129C1.17768 23.1184 0.41914 25.6873 0.416626 28.3125C0.416626 28.7655 0.596611 29.2001 0.916985 29.5204C1.23736 29.8408 1.67188 30.0208 2.12496 30.0208C2.57804 30.0208 3.01256 29.8408 3.33293 29.5204C3.65331 29.2001 3.83329 28.7655 3.83329 28.3125C3.83329 25.594 4.9132 22.9869 6.83545 21.0646C8.7577 19.1424 11.3648 18.0625 14.0833 18.0625C16.8018 18.0625 19.4089 19.1424 21.3311 21.0646C23.2534 22.9869 24.3333 25.594 24.3333 28.3125C24.3333 28.7655 24.5133 29.2001 24.8337 29.5204C25.154 29.8408 25.5885 30.0208 26.0416 30.0208C26.4947 30.0208 26.9292 29.8408 27.2496 29.5204C27.57 29.2001 27.75 28.7655 27.75 28.3125C27.7474 25.6873 26.9889 23.1184 25.565 20.9129C24.1412 18.7074 22.1122 16.9587 19.7208 15.8758V15.8758ZM14.0833 14.6458C13.0697 14.6458 12.0788 14.3452 11.236 13.7821C10.3932 13.2189 9.73631 12.4185 9.34841 11.482C8.96051 10.5456 8.85902 9.51511 9.05677 8.52095C9.25452 7.5268 9.74263 6.61361 10.4594 5.89687C11.1761 5.18013 12.0893 4.69202 13.0835 4.49427C14.0776 4.29652 15.1081 4.39801 16.0445 4.78591C16.981 5.17381 17.7814 5.83069 18.3446 6.67349C18.9077 7.5163 19.2083 8.50716 19.2083 9.52079C19.2083 10.88 18.6683 12.1836 17.7072 13.1447C16.7461 14.1058 15.4425 14.6458 14.0833 14.6458ZM34.0879 10.597C33.9291 10.4369 33.7401 10.3098 33.5319 10.2231C33.3238 10.1364 33.1005 10.0917 32.875 10.0917C32.6494 10.0917 32.4262 10.1364 32.218 10.2231C32.0098 10.3098 31.8209 10.4369 31.662 10.597L28.2454 14.0137L27.1862 12.9375C27.0274 12.7773 26.8385 12.6502 26.6303 12.5635C26.4221 12.4768 26.1988 12.4321 25.9733 12.4321C25.7478 12.4321 25.5245 12.4768 25.3163 12.5635C25.1081 12.6502 24.9192 12.7773 24.7604 12.9375C24.4422 13.2575 24.2636 13.6905 24.2636 14.1418C24.2636 14.5932 24.4422 15.0261 24.7604 15.3462L27.0495 17.6354C27.3696 17.9536 27.8026 18.1321 28.2539 18.1321C28.7052 18.1321 29.1382 17.9536 29.4583 17.6354L34.0195 13.0741C34.192 12.9192 34.3312 12.7308 34.4285 12.5204C34.5258 12.31 34.5793 12.082 34.5857 11.8503C34.5921 11.6185 34.5513 11.3879 34.4657 11.1725C34.3801 10.957 34.2516 10.7612 34.0879 10.597V10.597Z" fill="white"/>
</svg>
