<svg width="21" height="21" viewBox="0 0 21 21" fill="none" xmlns="http://www.w3.org/2000/svg">
<path d="M13.7767 11.7587L13.8867 11.5387L13.8885 11.5411C13.8907 11.5394 13.8929 11.5377 13.895 11.5361L13.7881 11.7642C16.2948 12.9392 18.0073 15.2776 18.2499 17.9947C18.2408 18.1601 18.0985 18.342 17.9388 18.3948H3.0481C2.80943 18.34 2.6795 18.1488 2.66785 17.9998C2.99164 15.2748 4.70982 12.9373 7.21254 11.7642L7.10573 11.5363C7.10948 11.5391 7.11323 11.542 7.11699 11.5448L7.20271 11.4305L7.43721 11.665C7.40069 11.7015 7.36862 11.716 7.36617 11.7171L7.36608 11.7171C7.36567 11.7173 7.36545 11.7174 7.36545 11.7174C7.36545 11.7174 7.36786 11.7164 7.37384 11.7142C7.38218 11.7112 7.39176 11.708 7.40844 11.7025L7.41358 11.7007C7.44161 11.6914 7.49505 11.6737 7.54837 11.6494C7.60722 11.6227 7.6918 11.5771 7.77055 11.4983L8.1782 11.0907L7.71699 10.7448C7.42156 10.5232 7.20523 10.3069 6.98366 10.0114L6.97827 10.0043L6.97263 9.99727C5.40633 8.05805 5.76648 5.28727 7.73116 3.70041C9.67039 2.13411 12.4412 2.49426 14.028 4.45894C15.5989 6.40385 15.2263 9.25038 13.2788 10.7485L12.1136 11.6448H13.5698C13.5843 11.6521 13.601 11.6617 13.6385 11.6833C13.6731 11.7033 13.7207 11.7306 13.7767 11.7587ZM6.66905 6.84951L6.61948 7.39478H7.16699H13.7503H14.3057L14.2476 6.84243C14.0562 5.02438 12.6207 3.5889 10.8027 3.39752L10.8027 3.3975L10.7977 3.39703C8.77441 3.20433 6.86101 4.73793 6.66905 6.84951ZM10.1468 14.415L10.4914 14.7596L10.8447 14.4239L12.5114 12.8406L13.1856 12.2L12.2794 11.9909C11.1221 11.7238 9.96188 11.7238 8.80456 11.9909L7.92554 12.1938L8.56344 12.8317L10.1468 14.415Z" fill="black" stroke="white" stroke-linecap="square"/>
</svg>
