<svg width="30" height="31" viewBox="0 0 30 31" fill="none" xmlns="http://www.w3.org/2000/svg">
<path d="M29.1457 9.08317L21.4165 1.354C21.1248 1.06234 20.8332 0.916504 20.3957 0.916504H9.604C9.1665 0.916504 8.87484 1.06234 8.58317 1.354L0.854004 9.08317C0.562337 9.37484 0.416504 9.6665 0.416504 10.104V21.0415C0.416504 21.479 0.562337 21.7707 0.854004 22.0623L8.58317 29.7915C8.87484 29.9373 9.1665 30.0832 9.604 30.0832H20.5415C20.979 30.0832 21.2707 29.9373 21.5623 29.6457L29.2915 21.9165C29.5832 21.6248 29.729 21.3332 29.729 20.8957V10.104C29.5832 9.6665 29.4373 9.37484 29.1457 9.08317ZM14.9998 22.7915C14.1248 22.7915 13.5415 22.2082 13.5415 21.3332C13.5415 20.4582 14.1248 19.8748 14.9998 19.8748C15.8748 19.8748 16.4582 20.4582 16.4582 21.3332C16.4582 22.2082 15.8748 22.7915 14.9998 22.7915ZM16.4582 15.4998C16.4582 16.3748 15.8748 16.9582 14.9998 16.9582C14.1248 16.9582 13.5415 16.3748 13.5415 15.4998V9.6665C13.5415 8.7915 14.1248 8.20817 14.9998 8.20817C15.8748 8.20817 16.4582 8.7915 16.4582 9.6665V15.4998Z" fill="white"/>
</svg>
