<svg width="50" height="50" viewBox="0 0 50 50" fill="none" xmlns="http://www.w3.org/2000/svg">
<path d="M41.6667 16.6667L29.1667 5.70835C28.0208 4.68344 26.5374 4.11682 25 4.11682C23.4627 4.11682 21.9792 4.68344 20.8333 5.70835L8.33335 16.6667C7.67162 17.2585 7.14356 17.9845 6.78433 18.7964C6.42511 19.6082 6.24296 20.4873 6.25001 21.375V39.5833C6.25001 41.2409 6.90849 42.8307 8.0806 44.0028C9.2527 45.1749 10.8424 45.8333 12.5 45.8333H37.5C39.1576 45.8333 40.7473 45.1749 41.9194 44.0028C43.0915 42.8307 43.75 41.2409 43.75 39.5833V21.3542C43.7541 20.4699 43.5705 19.5949 43.2114 18.7868C42.8523 17.9788 42.3258 17.2562 41.6667 16.6667ZM29.1667 41.6667H20.8333V31.25C20.8333 30.6975 21.0528 30.1676 21.4435 29.7769C21.8342 29.3862 22.3641 29.1667 22.9167 29.1667H27.0833C27.6359 29.1667 28.1658 29.3862 28.5565 29.7769C28.9472 30.1676 29.1667 30.6975 29.1667 31.25V41.6667ZM39.5834 39.5833C39.5834 40.1359 39.3639 40.6658 38.9732 41.0565C38.5825 41.4472 38.0526 41.6667 37.5 41.6667H33.3333V31.25C33.3333 29.5924 32.6749 28.0027 31.5028 26.8306C30.3307 25.6585 28.741 25 27.0833 25H22.9167C21.2591 25 19.6694 25.6585 18.4973 26.8306C17.3252 28.0027 16.6667 29.5924 16.6667 31.25V41.6667H12.5C11.9475 41.6667 11.4176 41.4472 11.0269 41.0565C10.6362 40.6658 10.4167 40.1359 10.4167 39.5833V21.3542C10.4171 21.0584 10.4804 20.766 10.6026 20.4966C10.7247 20.2272 10.9028 19.9869 11.125 19.7917L23.625 8.85418C24.0052 8.52018 24.494 8.33598 25 8.33598C25.5061 8.33598 25.9948 8.52018 26.375 8.85418L38.875 19.7917C39.0972 19.9869 39.2753 20.2272 39.3975 20.4966C39.5196 20.766 39.583 21.0584 39.5834 21.3542V39.5833Z" fill="white"/>
</svg>
