<svg width="17" height="18" viewBox="0 0 17 18" fill="none" xmlns="http://www.w3.org/2000/svg">
<path d="M12.7498 8.29166V4.74999C12.7498 4.37427 12.6006 4.01394 12.3349 3.74826C12.0692 3.48258 11.7089 3.33333 11.3332 3.33333C10.9574 3.33333 10.5971 3.48258 10.3314 3.74826C10.0658 4.01394 9.9165 4.37427 9.9165 4.74999" stroke="#AED4EF" stroke-linecap="square" stroke-linejoin="round"/>
<path d="M9.91683 7.58334V3.33334C9.91683 2.95762 9.76757 2.59728 9.5019 2.3316C9.23622 2.06593 8.87589 1.91667 8.50016 1.91667C8.12444 1.91667 7.7641 2.06593 7.49843 2.3316C7.23275 2.59728 7.0835 2.95762 7.0835 3.33334V4.75001" stroke="#AED4EF" stroke-linecap="round" stroke-linejoin="round"/>
<path d="M7.08333 7.9375V4.74999C7.08333 4.37427 6.93408 4.01394 6.6684 3.74826C6.40272 3.48258 6.04239 3.33333 5.66667 3.33333C5.29094 3.33333 4.93061 3.48258 4.66493 3.74826C4.39926 4.01394 4.25 4.37427 4.25 4.74999V10.4167" stroke="#AED4EF" stroke-linecap="round" stroke-linejoin="round"/>
<path d="M12.7499 6.16667C12.7499 5.79094 12.8992 5.43061 13.1648 5.16493C13.4305 4.89926 13.7909 4.75 14.1666 4.75C14.5423 4.75 14.9026 4.89926 15.1683 5.16493C15.434 5.43061 15.5832 5.79094 15.5832 6.16667V10.4167C15.5832 11.9196 14.9862 13.3609 13.9235 14.4236C12.8608 15.4863 11.4195 16.0833 9.91658 16.0833H8.49991C6.51658 16.0833 5.31241 15.4742 4.25699 14.4258L1.70699 11.8758C1.46328 11.6059 1.3327 11.2526 1.34229 10.8891C1.35188 10.5255 1.5009 10.1796 1.7585 9.92293C2.01611 9.66624 2.36256 9.51844 2.72612 9.51014C3.08969 9.50184 3.44253 9.63367 3.71158 9.87833L4.95824 11.125" stroke="#AED4EF" stroke-linecap="round" stroke-linejoin="round"/>
</svg>
