<svg width="16" height="16" viewBox="0 0 16 16" fill="none" xmlns="http://www.w3.org/2000/svg">
<path d="M12.0415 1.625C12.2275 1.43896 12.4484 1.29139 12.6915 1.1907C12.9345 1.09002 13.1951 1.0382 13.4582 1.0382C13.7213 1.0382 13.9818 1.09002 14.2249 1.1907C14.4679 1.29139 14.6888 1.43896 14.8748 1.625C15.0609 1.81104 15.2085 2.0319 15.3091 2.27497C15.4098 2.51804 15.4616 2.77857 15.4616 3.04167C15.4616 3.30477 15.4098 3.56529 15.3091 3.80836C15.2085 4.05143 15.0609 4.27229 14.8748 4.45833L5.31234 14.0208L1.4165 15.0833L2.479 11.1875L12.0415 1.625Z" stroke="#AED4EF" stroke-linecap="square" stroke-linejoin="round"/>
</svg>
