<svg width="29" height="29" viewBox="0 0 29 29" fill="none" xmlns="http://www.w3.org/2000/svg">
<path d="M14.7656 2.41699H14.2339C13.593 2.41699 12.9783 2.6716 12.5251 3.12482C12.0719 3.57803 11.8173 4.19272 11.8173 4.83366V5.05116C11.8168 5.47495 11.705 5.89118 11.4929 6.25809C11.2808 6.62499 10.9759 6.92968 10.6089 7.14158L10.0893 7.44366C9.72196 7.65577 9.30522 7.76743 8.88101 7.76743C8.45679 7.76743 8.04005 7.65577 7.67267 7.44366L7.49142 7.34699C6.93688 7.0271 6.27806 6.94032 5.65959 7.1057C5.04113 7.27108 4.51355 7.6751 4.19267 8.22908L3.92684 8.68824C3.60695 9.24279 3.52017 9.90161 3.68555 10.5201C3.85092 11.1385 4.25495 11.6661 4.80892 11.987L4.99017 12.1078C5.35542 12.3187 5.65913 12.6215 5.87111 12.9861C6.08309 13.3507 6.19596 13.7644 6.19851 14.1862V14.8024C6.2002 15.2283 6.08934 15.647 5.87714 16.0162C5.66495 16.3854 5.35897 16.692 4.99017 16.9049L4.80892 17.0137C4.25495 17.3345 3.85092 17.8621 3.68555 18.4806C3.52017 19.099 3.60695 19.7579 3.92684 20.3124L4.19267 20.7716C4.51355 21.3256 5.04113 21.7296 5.65959 21.895C6.27806 22.0603 6.93688 21.9736 7.49142 21.6537L7.67267 21.557C8.04005 21.3449 8.45679 21.2332 8.88101 21.2332C9.30522 21.2332 9.72196 21.3449 10.0893 21.557L10.6089 21.8591C10.9759 22.071 11.2808 22.3757 11.4929 22.7426C11.705 23.1095 11.8168 23.5257 11.8173 23.9495V24.167C11.8173 24.8079 12.0719 25.4226 12.5251 25.8758C12.9783 26.329 13.593 26.5837 14.2339 26.5837H14.7656C15.4065 26.5837 16.0212 26.329 16.4744 25.8758C16.9276 25.4226 17.1823 24.8079 17.1823 24.167V23.9495C17.1827 23.5257 17.2946 23.1095 17.5066 22.7426C17.7187 22.3757 18.0236 22.071 18.3906 21.8591L18.9102 21.557C19.2776 21.3449 19.6943 21.2332 20.1185 21.2332C20.5427 21.2332 20.9595 21.3449 21.3268 21.557L21.5081 21.6537C22.0626 21.9736 22.7215 22.0603 23.3399 21.895C23.9584 21.7296 24.486 21.3256 24.8068 20.7716L25.0727 20.3003C25.3926 19.7458 25.4793 19.087 25.314 18.4685C25.1486 17.85 24.7446 17.3225 24.1906 17.0016L24.0093 16.9049C23.6405 16.692 23.3346 16.3854 23.1224 16.0162C22.9102 15.647 22.7993 15.2283 22.801 14.8024V14.1982C22.7993 13.7724 22.9102 13.3537 23.1224 12.9845C23.3346 12.6152 23.6405 12.3087 24.0093 12.0957L24.1906 11.987C24.7446 11.6661 25.1486 11.1385 25.314 10.5201C25.4793 9.90161 25.3926 9.24279 25.0727 8.68824L24.8068 8.22908C24.486 7.6751 23.9584 7.27108 23.3399 7.1057C22.7215 6.94032 22.0626 7.0271 21.5081 7.34699L21.3268 7.44366C20.9595 7.65577 20.5427 7.76743 20.1185 7.76743C19.6943 7.76743 19.2776 7.65577 18.9102 7.44366L18.3906 7.14158C18.0236 6.92968 17.7187 6.62499 17.5066 6.25809C17.2946 5.89118 17.1827 5.47495 17.1823 5.05116V4.83366C17.1823 4.19272 16.9276 3.57803 16.4744 3.12482C16.0212 2.6716 15.4065 2.41699 14.7656 2.41699Z" stroke="#AED4EF" stroke-width="2" stroke-linecap="round" stroke-linejoin="round"/>
<path d="M14.5 18.125C16.502 18.125 18.125 16.502 18.125 14.5C18.125 12.498 16.502 10.875 14.5 10.875C12.498 10.875 10.875 12.498 10.875 14.5C10.875 16.502 12.498 18.125 14.5 18.125Z" stroke="#AED4EF" stroke-width="2" stroke-linecap="round" stroke-linejoin="round"/>
</svg>
