<svg width="74" height="73" viewBox="0 0 74 73" fill="none" xmlns="http://www.w3.org/2000/svg">
<path d="M49.1663 63.875V57.7917C49.1663 54.5649 47.8845 51.4702 45.6028 49.1885C43.3211 46.9068 40.2265 45.625 36.9997 45.625H18.7497C15.5229 45.625 12.4282 46.9068 10.1465 49.1885C7.86485 51.4702 6.58301 54.5649 6.58301 57.7917V63.875" stroke="white" stroke-width="2" stroke-linecap="square" stroke-linejoin="round"/>
<path d="M27.8747 33.4583C34.5941 33.4583 40.0413 28.0111 40.0413 21.2917C40.0413 14.5722 34.5941 9.125 27.8747 9.125C21.1552 9.125 15.708 14.5722 15.708 21.2917C15.708 28.0111 21.1552 33.4583 27.8747 33.4583Z" stroke="white" stroke-width="2" stroke-linecap="square" stroke-linejoin="round"/>
<path d="M67.417 63.8751V57.7918C67.415 55.096 66.5177 52.4773 64.8661 50.3467C63.2145 48.2162 60.9021 46.6944 58.292 46.0205" stroke="white" stroke-width="2" stroke-linecap="round" stroke-linejoin="round"/>
<path d="M49.167 9.52051C51.7841 10.1906 54.1037 11.7126 55.7602 13.8467C57.4167 15.9808 58.3158 18.6054 58.3158 21.307C58.3158 24.0085 57.4167 26.6332 55.7602 28.7672C54.1037 30.9013 51.7841 32.4233 49.167 33.0934" stroke="white" stroke-width="2" stroke-linecap="round" stroke-linejoin="round"/>
</svg>
