<?xml version="1.0" encoding="UTF-8"?><svg xmlns="http://www.w3.org/2000/svg" xmlns:xlink="http://www.w3.org/1999/xlink" fill-opacity="1" color-rendering="auto" color-interpolation="auto" text-rendering="auto" stroke="black" stroke-linecap="square" width="1017" stroke-miterlimit="10" shape-rendering="auto" stroke-opacity="1" fill="black" stroke-dasharray="none" font-weight="normal" stroke-width="1" height="1338" font-family="'Dialog'" font-style="normal" stroke-linejoin="miter" font-size="12px" stroke-dashoffset="0" image-rendering="auto">
  <!--Generated by ySVG 2.5-->
  <defs id="genericDefs"/>
  <g>
    <defs id="defs1">
      <clipPath clipPathUnits="userSpaceOnUse" id="clipPath1">
        <path d="M0 0 L1017 0 L1017 1338 L0 1338 L0 0 Z"/>
      </clipPath>
      <clipPath clipPathUnits="userSpaceOnUse" id="clipPath2">
        <path d="M-39 -134 L978 -134 L978 1204 L-39 1204 L-39 -134 Z"/>
      </clipPath>
    </defs>
    <g fill="white" text-rendering="geometricPrecision" shape-rendering="geometricPrecision" transform="translate(39,134)" stroke="white">
      <rect x="-39" width="1017" height="1338" y="-134" clip-path="url(#clipPath2)" stroke="none"/>
    </g>
    <g fill="rgb(255,204,0)" text-rendering="geometricPrecision" shape-rendering="geometricPrecision" transform="matrix(1,0,0,1,39,134)" stroke="rgb(255,204,0)">
      <rect x="167.7286" width="138.5625" height="30" y="-118.9444" clip-path="url(#clipPath2)" stroke="none"/>
    </g>
    <g text-rendering="geometricPrecision" stroke-miterlimit="1.45" shape-rendering="geometricPrecision" font-family="sans-serif" transform="matrix(1,0,0,1,39,134)" stroke-linecap="butt">
      <text x="198.3292" xml:space="preserve" y="-99.2306" clip-path="url(#clipPath2)" stroke="none">myApps Client</text>
      <rect fill="none" x="167.7286" width="138.5625" height="30" y="-118.9444" clip-path="url(#clipPath2)"/>
    </g>
    <g fill="rgb(255,204,0)" text-rendering="geometricPrecision" shape-rendering="geometricPrecision" transform="matrix(1,0,0,1,39,134)" stroke="rgb(255,204,0)">
      <rect x="647.5951" width="92.5625" height="30" y="-118.9444" clip-path="url(#clipPath2)" stroke="none"/>
    </g>
    <g text-rendering="geometricPrecision" stroke-miterlimit="1.45" shape-rendering="geometricPrecision" font-family="sans-serif" transform="matrix(1,0,0,1,39,134)" stroke-linecap="butt">
      <text x="681.8705" xml:space="preserve" y="-99.2306" clip-path="url(#clipPath2)" stroke="none">PBX</text>
      <rect fill="none" x="647.5951" width="92.5625" height="30" y="-118.9444" clip-path="url(#clipPath2)"/>
    </g>
    <g fill="silver" text-rendering="geometricPrecision" shape-rendering="geometricPrecision" transform="matrix(1,0,0,1,39,134)" stroke="silver">
      <rect x="232.5098" width="11" height="609.5038" y="-58.9444" clip-path="url(#clipPath2)" stroke="none"/>
    </g>
    <g text-rendering="geometricPrecision" stroke-miterlimit="1.45" shape-rendering="geometricPrecision" transform="matrix(1,0,0,1,39,134)" stroke-linecap="butt">
      <rect fill="none" x="232.5098" width="11" height="609.5038" y="-58.9444" clip-path="url(#clipPath2)"/>
    </g>
    <g fill="silver" text-rendering="geometricPrecision" shape-rendering="geometricPrecision" transform="matrix(1,0,0,1,39,134)" stroke="silver">
      <rect x="688.3763" width="11" height="609.5038" y="-58.9444" clip-path="url(#clipPath2)" stroke="none"/>
    </g>
    <g text-rendering="geometricPrecision" stroke-miterlimit="1.45" shape-rendering="geometricPrecision" transform="matrix(1,0,0,1,39,134)" stroke-linecap="butt">
      <rect fill="none" x="688.3763" width="11" height="609.5038" y="-58.9444" clip-path="url(#clipPath2)"/>
    </g>
    <g fill="silver" text-rendering="geometricPrecision" shape-rendering="geometricPrecision" transform="matrix(1,0,0,1,39,134)" stroke="silver">
      <rect x="232.5098" width="11" height="468.2197" y="720.4912" clip-path="url(#clipPath2)" stroke="none"/>
    </g>
    <g text-rendering="geometricPrecision" stroke-miterlimit="1.45" shape-rendering="geometricPrecision" transform="matrix(1,0,0,1,39,134)" stroke-linecap="butt">
      <rect fill="none" x="232.5098" width="11" height="468.2197" y="720.4912" clip-path="url(#clipPath2)"/>
    </g>
    <g fill="silver" text-rendering="geometricPrecision" shape-rendering="geometricPrecision" transform="matrix(1,0,0,1,39,134)" stroke="silver">
      <rect x="688.3763" width="11" height="468.2197" y="720.4912" clip-path="url(#clipPath2)" stroke="none"/>
    </g>
    <g text-rendering="geometricPrecision" stroke-miterlimit="1.45" shape-rendering="geometricPrecision" transform="matrix(1,0,0,1,39,134)" stroke-linecap="butt">
      <rect fill="none" x="688.3763" width="11" height="468.2197" y="720.4912" clip-path="url(#clipPath2)"/>
    </g>
    <g fill="rgb(204,255,204)" text-rendering="geometricPrecision" shape-rendering="geometricPrecision" transform="matrix(1,0,0,1,39,134)" stroke="rgb(204,255,204)">
      <rect x="-23.4617" y="454.0628" clip-path="url(#clipPath2)" width="221.3591" rx="4" ry="4" height="106.5244" stroke="none"/>
    </g>
    <g text-rendering="geometricPrecision" stroke-miterlimit="1.45" shape-rendering="geometricPrecision" font-family="sans-serif" transform="matrix(1,0,0,1,39,134)" stroke-linecap="butt">
      <text x="39.1973" xml:space="preserve" y="482.6365" clip-path="url(#clipPath2)" stroke="none">Store parameters </text>
      <text x="22.835" xml:space="preserve" y="497.3377" clip-path="url(#clipPath2)" stroke="none">&lt;domain&gt;, &lt;challenge&gt;.</text>
      <text x="85.5508" xml:space="preserve" y="512.0389" clip-path="url(#clipPath2)" stroke="none"> </text>
      <text x="55.8702" xml:space="preserve" y="526.7401" clip-path="url(#clipPath2)" stroke="none">Display the </text>
      <text x="24.8507" xml:space="preserve" y="541.4412" clip-path="url(#clipPath2)" stroke="none">OpenID login page (url)</text>
      <rect x="-23.4617" y="454.0628" clip-path="url(#clipPath2)" fill="none" width="221.3591" rx="4" ry="4" height="106.5244"/>
    </g>
    <g fill="rgb(204,255,204)" text-rendering="geometricPrecision" shape-rendering="geometricPrecision" transform="matrix(1,0,0,1,39,134)" stroke="rgb(204,255,204)">
      <rect x="-23.4617" y="331.739" clip-path="url(#clipPath2)" width="221.3591" rx="4" ry="4" height="65.3984" stroke="none"/>
    </g>
    <g text-rendering="geometricPrecision" stroke-miterlimit="1.45" shape-rendering="geometricPrecision" font-family="sans-serif" transform="matrix(1,0,0,1,39,134)" stroke-linecap="butt">
      <text x="32.5118" xml:space="preserve" y="361.8015" clip-path="url(#clipPath2)" stroke="none">Pick a &lt;nonce&gt; and </text>
      <text x="33.1944" xml:space="preserve" y="376.5027" clip-path="url(#clipPath2)" stroke="none">an ECDH keyShare.</text>
      <rect x="-23.4617" y="331.739" clip-path="url(#clipPath2)" fill="none" width="221.3591" rx="4" ry="4" height="65.3984"/>
    </g>
    <g fill="rgb(204,255,204)" text-rendering="geometricPrecision" shape-rendering="geometricPrecision" transform="matrix(1,0,0,1,39,134)" stroke="rgb(204,255,204)">
      <rect x="-23.4617" y="143.8187" clip-path="url(#clipPath2)" width="225.9716" rx="4" ry="4" height="84.3706" stroke="none"/>
    </g>
    <g text-rendering="geometricPrecision" stroke-miterlimit="1.45" shape-rendering="geometricPrecision" font-family="sans-serif" transform="matrix(1,0,0,1,39,134)" stroke-linecap="butt">
      <text x="7.1442" xml:space="preserve" y="168.6661" clip-path="url(#clipPath2)" stroke="none">Query available login methods.</text>
      <text x="87.8571" xml:space="preserve" y="183.3673" clip-path="url(#clipPath2)" stroke="none"> </text>
      <text x="-16.5394" xml:space="preserve" y="198.0685" clip-path="url(#clipPath2)" stroke="none">Learn the name of the OpenID provider </text>
      <text x="51.1715" xml:space="preserve" y="212.7696" clip-path="url(#clipPath2)" stroke="none">(oauth2Name)</text>
      <rect x="-23.4617" y="143.8187" clip-path="url(#clipPath2)" fill="none" width="225.9716" rx="4" ry="4" height="84.3706"/>
    </g>
    <g fill="rgb(204,255,204)" text-rendering="geometricPrecision" shape-rendering="geometricPrecision" transform="matrix(1,0,0,1,39,134)" stroke="rgb(204,255,204)">
      <rect x="741.2113" y="845.3693" clip-path="url(#clipPath2)" width="221.3591" rx="4" ry="4" height="94.3984" stroke="none"/>
    </g>
    <g text-rendering="geometricPrecision" stroke-miterlimit="1.45" shape-rendering="geometricPrecision" font-family="sans-serif" transform="matrix(1,0,0,1,39,134)" stroke-linecap="butt">
      <text x="789.1867" xml:space="preserve" y="867.8801" clip-path="url(#clipPath2)" stroke="none">In case 2FA is enabled,</text>
      <text x="788.1935" xml:space="preserve" y="882.5812" clip-path="url(#clipPath2)" stroke="none">PBX will send Authorize</text>
      <text x="769.5021" xml:space="preserve" y="897.2824" clip-path="url(#clipPath2)" stroke="none">message and hold LoginResult</text>
      <text x="791.5158" xml:space="preserve" y="911.9836" clip-path="url(#clipPath2)" stroke="none">message upon second</text>
      <text x="803.8703" xml:space="preserve" y="926.6848" clip-path="url(#clipPath2)" stroke="none">factor confirmaton</text>
      <rect x="741.2113" y="845.3693" clip-path="url(#clipPath2)" fill="none" width="221.3591" rx="4" ry="4" height="94.3984"/>
    </g>
    <g fill="rgb(204,255,204)" text-rendering="geometricPrecision" shape-rendering="geometricPrecision" transform="matrix(1,0,0,1,39,134)" stroke="rgb(204,255,204)">
      <rect x="-23.4617" y="839.002" clip-path="url(#clipPath2)" width="221.3591" rx="4" ry="4" height="321.6655" stroke="none"/>
    </g>
    <g text-rendering="geometricPrecision" stroke-miterlimit="1.45" shape-rendering="geometricPrecision" font-family="sans-serif" transform="matrix(1,0,0,1,39,134)" stroke-linecap="butt">
      <text x="-8.4921" xml:space="preserve" y="894.2898" clip-path="url(#clipPath2)" stroke="none">Calculate the ECDHE shared secret</text>
      <text x="16.1671" xml:space="preserve" y="908.991" clip-path="url(#clipPath2)" stroke="none">using Login.keyShare and </text>
      <text x="16.838" xml:space="preserve" y="923.6921" clip-path="url(#clipPath2)" stroke="none">LoginResult.keyShare and</text>
      <text x="26.8546" xml:space="preserve" y="938.3933" clip-path="url(#clipPath2)" stroke="none">store it as &lt;password&gt;</text>
      <text x="85.5508" xml:space="preserve" y="953.0945" clip-path="url(#clipPath2)" stroke="none"> </text>
      <text x="-6.1659" xml:space="preserve" y="967.7957" clip-path="url(#clipPath2)" stroke="none">Store info.user.sip as &lt;username&gt;.</text>
      <text x="-8.8202" xml:space="preserve" y="982.4968" clip-path="url(#clipPath2)" stroke="none">Store JSON.stringify(info) as &lt;info&gt;.</text>
      <text x="85.5508" xml:space="preserve" y="997.198" clip-path="url(#clipPath2)" stroke="none"> </text>
      <text x="38.2657" xml:space="preserve" y="1011.8992" clip-path="url(#clipPath2)" stroke="none">Check the "digest"</text>
      <text x="18.5137" xml:space="preserve" y="1026.6003" clip-path="url(#clipPath2)" stroke="none">that is calculated like that:</text>
      <text x="62.8721" xml:space="preserve" y="1041.3015" clip-path="url(#clipPath2)" stroke="none">SHA256(</text>
      <text x="-10.5136" xml:space="preserve" y="1056.0027" clip-path="url(#clipPath2)" stroke="none">    innovaphoneAppClient:loginresult:</text>
      <text x="16.8409" xml:space="preserve" y="1070.7039" clip-path="url(#clipPath2)" stroke="none">    &lt;domain&gt;:&lt;username&gt;:</text>
      <text x="21.1739" xml:space="preserve" y="1085.405" clip-path="url(#clipPath2)" stroke="none">    &lt;password&gt;:&lt;nonce&gt;:</text>
      <text x="29.5059" xml:space="preserve" y="1100.1062" clip-path="url(#clipPath2)" stroke="none">    &lt;challenge&gt;:&lt;info&gt;</text>
      <text x="85.2198" xml:space="preserve" y="1114.8074" clip-path="url(#clipPath2)" stroke="none">)</text>
      <rect x="-23.4617" y="839.002" clip-path="url(#clipPath2)" fill="none" width="221.3591" rx="4" ry="4" height="321.6655"/>
    </g>
    <g fill="rgb(204,255,204)" text-rendering="geometricPrecision" shape-rendering="geometricPrecision" transform="matrix(1,0,0,1,39,134)" stroke="rgb(204,255,204)">
      <rect x="741.2113" y="593.34" clip-path="url(#clipPath2)" width="221.3591" rx="4" ry="4" height="84.3706" stroke="none"/>
    </g>
    <g text-rendering="geometricPrecision" stroke-miterlimit="1.45" shape-rendering="geometricPrecision" font-family="sans-serif" transform="matrix(1,0,0,1,39,134)" stroke-linecap="butt">
      <text x="749.1789" xml:space="preserve" y="640.2391" clip-path="url(#clipPath2)" stroke="none">PBX waits until it receives the ID token</text>
      <rect x="741.2113" y="593.34" clip-path="url(#clipPath2)" fill="none" width="221.3591" rx="4" ry="4" height="84.3706"/>
    </g>
    <g fill="rgb(204,255,204)" text-rendering="geometricPrecision" shape-rendering="geometricPrecision" transform="matrix(1,0,0,1,39,134)" stroke="rgb(204,255,204)">
      <rect x="-23.4617" y="593.34" clip-path="url(#clipPath2)" width="221.3591" rx="4" ry="4" height="84.3706" stroke="none"/>
    </g>
    <g text-rendering="geometricPrecision" stroke-miterlimit="1.45" shape-rendering="geometricPrecision" font-family="sans-serif" transform="matrix(1,0,0,1,39,134)" stroke-linecap="butt">
      <text x="24.8536" xml:space="preserve" y="610.8368" clip-path="url(#clipPath2)" stroke="none">User logs in on OpenID</text>
      <text x="57.8594" xml:space="preserve" y="625.538" clip-path="url(#clipPath2)" stroke="none">login page.</text>
      <text x="85.5508" xml:space="preserve" y="640.2391" clip-path="url(#clipPath2)" stroke="none"> </text>
      <text x="-0.5058" xml:space="preserve" y="654.9403" clip-path="url(#clipPath2)" stroke="none">The login page does a redirect to</text>
      <text x="1.8292" xml:space="preserve" y="669.6415" clip-path="url(#clipPath2)" stroke="none">the PBX and sends the ID token</text>
      <rect x="-23.4617" y="593.34" clip-path="url(#clipPath2)" fill="none" width="221.3591" rx="4" ry="4" height="84.3706"/>
    </g>
    <g fill="rgb(204,255,204)" text-rendering="geometricPrecision" shape-rendering="geometricPrecision" transform="matrix(1,0,0,1,39,134)" stroke="rgb(204,255,204)">
      <rect x="-23.4617" y="753.9392" clip-path="url(#clipPath2)" width="221.3591" rx="4" ry="4" height="58.3661" stroke="none"/>
    </g>
    <g text-rendering="geometricPrecision" stroke-miterlimit="1.45" shape-rendering="geometricPrecision" font-family="sans-serif" transform="matrix(1,0,0,1,39,134)" stroke-linecap="butt">
      <text x="10.1671" xml:space="preserve" y="787.8361" clip-path="url(#clipPath2)" stroke="none">Close the OpenID login page</text>
      <rect x="-23.4617" y="753.9392" clip-path="url(#clipPath2)" fill="none" width="221.3591" rx="4" ry="4" height="58.3661"/>
      <path fill="none" stroke-dasharray="6,2" d="M237.0527 -88.9444 L237.1385 -58.9444" clip-path="url(#clipPath2)"/>
      <path fill="none" d="M243.5177 41.2301 L680.3752 41.2301" clip-path="url(#clipPath2)"/>
      <path d="M688.3752 41.2301 L676.3752 36.2301 L679.3752 41.2301 L676.3752 46.2301 Z" clip-path="url(#clipPath2)" stroke="none"/>
      <rect x="417.4021" y="17.1784" clip-path="url(#clipPath2)" fill="white" width="97.082" height="48.1035" stroke="none"/>
      <text x="419.4021" xml:space="preserve" y="31.2428" clip-path="url(#clipPath2)" stroke="none">{</text>
      <text x="419.4021" xml:space="preserve" y="45.944" clip-path="url(#clipPath2)" stroke="none">  "mt": "LoginInfo"</text>
      <text x="419.4021" xml:space="preserve" y="60.6452" clip-path="url(#clipPath2)" stroke="none">}</text>
      <path fill="none" d="M243.5222 366.723 L680.3577 366.723" clip-path="url(#clipPath2)"/>
      <path d="M688.3577 366.723 L676.3577 361.723 L679.3577 366.723 L676.3577 371.723 Z" clip-path="url(#clipPath2)" stroke="none"/>
      <rect x="374.0632" y="305.9183" clip-path="url(#clipPath2)" fill="white" width="183.7598" height="121.6094" stroke="none"/>
      <text x="376.0632" xml:space="preserve" y="319.9828" clip-path="url(#clipPath2)" stroke="none">{</text>
      <text x="376.0632" xml:space="preserve" y="334.6839" clip-path="url(#clipPath2)" stroke="none">  "mt": "Login",</text>
      <text x="376.0632" xml:space="preserve" y="349.3851" clip-path="url(#clipPath2)" stroke="none">  "type": "user",</text>
      <text x="376.0632" xml:space="preserve" y="364.0863" clip-path="url(#clipPath2)" stroke="none">  "userAgent": "myApps (Firefox)",</text>
      <text x="376.0632" xml:space="preserve" y="378.7874" clip-path="url(#clipPath2)" stroke="none">  "method": "oauth2",</text>
      <text x="376.0632" xml:space="preserve" y="393.4886" clip-path="url(#clipPath2)" stroke="none">  "nonce": "e245826ff68bf68f",</text>
      <text x="376.0632" xml:space="preserve" y="408.1898" clip-path="url(#clipPath2)" stroke="none">  "keyShare": "aa73..."</text>
      <text x="376.0632" xml:space="preserve" y="422.891" clip-path="url(#clipPath2)" stroke="none">}</text>
      <path fill="none" stroke-dasharray="6,2" d="M693.8763 -88.9444 L693.8763 -58.9444" clip-path="url(#clipPath2)"/>
      <path fill="none" d="M243.5214 -27.3555 L679.3453 -27.3555" stroke-width="2" clip-path="url(#clipPath2)"/>
      <path d="M688.3453 -27.3555 L674.8453 -32.9805 L678.2203 -27.3555 L674.8453 -21.7305 Z" stroke-width="2" clip-path="url(#clipPath2)" stroke="none"/>
    </g>
    <g stroke-linecap="butt" transform="matrix(1,0,0,1,39,134)" fill="white" text-rendering="geometricPrecision" shape-rendering="geometricPrecision" stroke="white" stroke-width="2" stroke-miterlimit="1.45">
      <rect x="329.5378" width="272.8105" height="33.4023" y="-44.0567" clip-path="url(#clipPath2)" stroke="none"/>
    </g>
    <g text-rendering="geometricPrecision" stroke-miterlimit="1.45" shape-rendering="geometricPrecision" font-family="sans-serif" transform="matrix(1,0,0,1,39,134)" stroke-linecap="butt">
      <text x="436.9245" xml:space="preserve" y="-29.9923" clip-path="url(#clipPath2)" stroke="none">Connect to</text>
      <text x="331.5378" xml:space="preserve" y="-15.2911" clip-path="url(#clipPath2)" stroke="none">ws://1.2.3.4/PBX0/APPCLIENT/130000/websocket</text>
      <path fill="none" d="M688.3674 183.118 L251.5108 183.118" clip-path="url(#clipPath2)"/>
      <path d="M243.5108 183.118 L255.5108 188.118 L252.5108 183.118 L255.5108 178.118 Z" clip-path="url(#clipPath2)" stroke="none"/>
      <rect x="386.7253" y="92.9109" clip-path="url(#clipPath2)" fill="white" width="158.4355" height="180.4141" stroke="none"/>
      <text x="388.7253" xml:space="preserve" y="106.9754" clip-path="url(#clipPath2)" stroke="none">{</text>
      <text x="388.7253" xml:space="preserve" y="121.6766" clip-path="url(#clipPath2)" stroke="none">  "mt": "LoginInfoResult",</text>
      <text x="388.7253" xml:space="preserve" y="136.3777" clip-path="url(#clipPath2)" stroke="none">  "user": {</text>
      <text x="388.7253" xml:space="preserve" y="151.0789" clip-path="url(#clipPath2)" stroke="none">    "digest": false,</text>
      <text x="388.7253" xml:space="preserve" y="165.7801" clip-path="url(#clipPath2)" stroke="none">    "ntlm": false,</text>
      <text x="388.7253" xml:space="preserve" y="180.4812" clip-path="url(#clipPath2)" stroke="none">    "oauth2": true,</text>
      <text x="388.7253" xml:space="preserve" y="195.1824" clip-path="url(#clipPath2)" stroke="none">    "oauth2Name": "Windows"</text>
      <text x="388.7253" xml:space="preserve" y="209.8836" clip-path="url(#clipPath2)" stroke="none">  },</text>
      <text x="388.7253" xml:space="preserve" y="224.5847" clip-path="url(#clipPath2)" stroke="none">  "session": {</text>
      <text x="388.7253" xml:space="preserve" y="239.2859" clip-path="url(#clipPath2)" stroke="none">    "digest": true</text>
      <text x="388.7253" xml:space="preserve" y="253.9871" clip-path="url(#clipPath2)" stroke="none">  }</text>
      <text x="388.7253" xml:space="preserve" y="268.6883" clip-path="url(#clipPath2)" stroke="none">}</text>
      <path fill="none" d="M688.3465 508.8485 L251.523 508.8485" clip-path="url(#clipPath2)"/>
      <path d="M243.523 508.8485 L255.523 513.8485 L252.523 508.8485 L255.523 503.8485 Z" clip-path="url(#clipPath2)" stroke="none"/>
      <rect x="335.696" y="448.0438" clip-path="url(#clipPath2)" fill="white" width="260.4941" height="121.6094" stroke="none"/>
      <text x="337.696" xml:space="preserve" y="462.1083" clip-path="url(#clipPath2)" stroke="none">{</text>
      <text x="337.696" xml:space="preserve" y="476.8094" clip-path="url(#clipPath2)" stroke="none">  "mt": "Authenticate",</text>
      <text x="337.696" xml:space="preserve" y="491.5106" clip-path="url(#clipPath2)" stroke="none">  "type": "user",</text>
      <text x="337.696" xml:space="preserve" y="506.2118" clip-path="url(#clipPath2)" stroke="none">  "method": "oauth2",</text>
      <text x="337.696" xml:space="preserve" y="520.913" clip-path="url(#clipPath2)" stroke="none">  "domain": "innovaphone.com",</text>
      <text x="337.696" xml:space="preserve" y="535.6141" clip-path="url(#clipPath2)" stroke="none">  "url": "https://adfs.example.com/adfs/oauth2...",</text>
      <text x="337.696" xml:space="preserve" y="550.3153" clip-path="url(#clipPath2)" stroke="none">  "challenge": "25fc8bd3d7e171e7"</text>
      <text x="337.696" xml:space="preserve" y="565.0165" clip-path="url(#clipPath2)" stroke="none">}</text>
      <path fill="none" stroke-dasharray="6,2" d="M238.0098 550.5594 L238.0098 720.4912" clip-path="url(#clipPath2)"/>
      <path fill="none" stroke-dasharray="6,2" d="M693.8763 550.5594 L693.8763 720.4912" clip-path="url(#clipPath2)"/>
      <path fill="none" d="M688.3521 996.1268 L251.5152 996.1268" clip-path="url(#clipPath2)"/>
      <path d="M243.5152 996.1268 L255.5152 1001.1268 L252.5152 996.1268 L255.5152 991.1268 Z" clip-path="url(#clipPath2)" stroke="none"/>
      <rect x="385.0613" y="839.7645" clip-path="url(#clipPath2)" fill="white" width="161.7637" height="312.7246" stroke="none"/>
      <text x="387.0612" xml:space="preserve" y="853.829" clip-path="url(#clipPath2)" stroke="none">{</text>
      <text x="387.0612" xml:space="preserve" y="868.5302" clip-path="url(#clipPath2)" stroke="none">  "mt": "LoginResult",</text>
      <text x="387.0612" xml:space="preserve" y="883.2313" clip-path="url(#clipPath2)" stroke="none">  "info": {</text>
      <text x="387.0612" xml:space="preserve" y="897.9325" clip-path="url(#clipPath2)" stroke="none">    "user": {</text>
      <text x="387.0612" xml:space="preserve" y="912.6337" clip-path="url(#clipPath2)" stroke="none">      "domain": "example.com",</text>
      <text x="387.0612" xml:space="preserve" y="927.3348" clip-path="url(#clipPath2)" stroke="none">      "sip": "jdo",</text>
      <text x="387.0612" xml:space="preserve" y="942.036" clip-path="url(#clipPath2)" stroke="none">      "guid": "d6ff...",</text>
      <text x="387.0612" xml:space="preserve" y="956.7372" clip-path="url(#clipPath2)" stroke="none">      "dn": "John Doe",</text>
      <text x="387.0612" xml:space="preserve" y="971.4384" clip-path="url(#clipPath2)" stroke="none">      "num": "132",</text>
      <text x="387.0612" xml:space="preserve" y="986.1395" clip-path="url(#clipPath2)" stroke="none">      "prefix": {}</text>
      <text x="387.0612" xml:space="preserve" y="1000.8407" clip-path="url(#clipPath2)" stroke="none">    },</text>
      <text x="387.0612" xml:space="preserve" y="1015.5419" clip-path="url(#clipPath2)" stroke="none">    "account": {},</text>
      <text x="387.0612" xml:space="preserve" y="1030.243" clip-path="url(#clipPath2)" stroke="none">    "settings": {},</text>
      <text x="387.0612" xml:space="preserve" y="1044.9442" clip-path="url(#clipPath2)" stroke="none">    "session": {</text>
      <text x="387.0612" xml:space="preserve" y="1059.6454" clip-path="url(#clipPath2)" stroke="none">      "usr": "e4d0...",</text>
      <text x="387.0612" xml:space="preserve" y="1074.3466" clip-path="url(#clipPath2)" stroke="none">      "pwd": "9c82..."</text>
      <text x="387.0612" xml:space="preserve" y="1089.0477" clip-path="url(#clipPath2)" stroke="none">    },</text>
      <text x="387.0612" xml:space="preserve" y="1103.7489" clip-path="url(#clipPath2)" stroke="none">    "keyShare": "3daf...."</text>
      <text x="387.0612" xml:space="preserve" y="1118.4501" clip-path="url(#clipPath2)" stroke="none">  },</text>
      <text x="387.0612" xml:space="preserve" y="1133.1512" clip-path="url(#clipPath2)" stroke="none">  "digest": "7db8..."</text>
      <text x="387.0612" xml:space="preserve" y="1147.8524" clip-path="url(#clipPath2)" stroke="none">}</text>
      <path fill="none" d="M688.3839 786.0022 L251.5251 786.0022" clip-path="url(#clipPath2)"/>
      <path d="M243.5251 786.0022 L255.5251 791.0022 L252.5251 786.0022 L255.5251 781.0022 Z" clip-path="url(#clipPath2)" stroke="none"/>
      <rect x="411.7419" y="754.5998" clip-path="url(#clipPath2)" fill="white" width="108.4023" height="62.8047" stroke="none"/>
      <text x="413.7419" xml:space="preserve" y="768.6643" clip-path="url(#clipPath2)" stroke="none">{</text>
      <text x="413.7419" xml:space="preserve" y="783.3655" clip-path="url(#clipPath2)" stroke="none">    "mt": "Authorize",</text>
      <text x="413.7419" xml:space="preserve" y="798.0667" clip-path="url(#clipPath2)" stroke="none">    "code": "2345"</text>
      <text x="413.7419" xml:space="preserve" y="812.7678" clip-path="url(#clipPath2)" stroke="none">}</text>
    </g>
    <g stroke-linecap="round" transform="matrix(1,0,0,1,39,134)" stroke-dashoffset="2" text-rendering="geometricPrecision" shape-rendering="geometricPrecision" stroke-dasharray="0,4" stroke-miterlimit="1.45">
      <path fill="none" d="M197.9128 508.5509 L232.4939 508.9339" clip-path="url(#clipPath2)"/>
      <path fill="none" d="M197.9201 367.7118 L232.4862 367.7118" clip-path="url(#clipPath2)"/>
      <path fill="none" d="M202.5312 184.7874 L232.4906 184.4649" clip-path="url(#clipPath2)"/>
      <path fill="none" d="M784.8336 845.3569 L699.3831 785.1956" clip-path="url(#clipPath2)"/>
      <path fill="none" d="M781.7918 939.7526 L699.4078 995.2057" clip-path="url(#clipPath2)"/>
      <path fill="none" d="M197.922 999.8347 L232.5059 999.8347" clip-path="url(#clipPath2)"/>
      <path fill="none" d="M800.2436 593.3373 L699.394 510.9586" clip-path="url(#clipPath2)"/>
      <path fill="none" d="M808.1187 677.7057 L699.3943 782.4763" clip-path="url(#clipPath2)"/>
      <path fill="none" stroke-dasharray="none" d="M197.877 635.5253 L733.1987 635.5253" stroke-dashoffset="0" clip-path="url(#clipPath2)" stroke-linecap="butt"/>
      <path stroke-dasharray="none" d="M741.1987 635.5253 L729.1987 630.5253 L732.1987 635.5253 L729.1987 640.5253 Z" stroke-dashoffset="0" clip-path="url(#clipPath2)" stroke-linecap="butt" stroke="none"/>
      <path fill="none" d="M197.898 783.1223 L232.4745 783.1223" clip-path="url(#clipPath2)"/>
    </g>
  </g>
</svg>
