<svg width="74" height="73" viewBox="0 0 74 73" fill="none" xmlns="http://www.w3.org/2000/svg">
<path d="M67.4169 51.465V60.59C67.4203 61.4371 67.2468 62.2756 66.9074 63.0517C66.568 63.8279 66.0703 64.5246 65.4461 65.0973C64.8219 65.67 64.0849 66.106 63.2825 66.3774C62.48 66.6488 61.6297 66.7496 60.786 66.6733C51.4263 65.6563 42.4356 62.458 34.5364 57.3354C27.1872 52.6654 20.9564 46.4346 16.2864 39.0854C11.146 31.1503 7.94692 22.1159 6.94852 12.7141C6.87251 11.873 6.97247 11.0253 7.24204 10.2249C7.51161 9.42454 7.94488 8.68907 8.51426 8.06532C9.08365 7.44157 9.77667 6.94321 10.5492 6.60197C11.3218 6.26074 12.1569 6.0841 13.0014 6.0833H22.1264C23.6026 6.06877 25.0336 6.5915 26.1529 7.55405C27.2721 8.5166 28.0032 9.85329 28.2098 11.315C28.5949 14.2352 29.3092 17.1024 30.3389 19.8621C30.7482 20.9507 30.8367 22.1339 30.5942 23.2714C30.3516 24.4089 29.788 25.453 28.9702 26.28L25.1073 30.1429C29.4372 37.7578 35.7423 44.0629 43.3573 48.3929L47.2202 44.53C48.0472 43.7122 49.0913 43.1486 50.2288 42.906C51.3662 42.6634 52.5494 42.752 53.6381 43.1612C56.3977 44.191 59.265 44.9052 62.1852 45.2904C63.6627 45.4988 65.0121 46.2431 65.9767 47.3815C66.9413 48.52 67.4539 49.9733 67.4169 51.465Z" stroke="#FEF2F3" stroke-width="2" stroke-linecap="square" stroke-linejoin="round"/>
</svg>
